<?xml version="1.0" encoding="utf-8"?>
<!-- Generator: Adobe Illustrator 22.0.1, SVG Export Plug-In . SVG Version: 6.00 Build 0)  -->
<svg version="1.1" id="Layer_1" xmlns="http://www.w3.org/2000/svg" xmlns:xlink="http://www.w3.org/1999/xlink" x="0px" y="0px"
	 viewBox="0 0 48 48" style="enable-background:new 0 0 48 48;" xml:space="preserve">
<style type="text/css">
	.st0{fill:#CDBDAE;}
	.st1{fill:#FFFFFF;}
</style>
<g>
	<rect x="-227" class="st0" width="48" height="48"/>
	<g>
		<path class="st1" d="M-207,39h6c0,0,0-8.3,0-15h4.5l0.5-6h-4.8v-2.4c0-1.2,0.8-1.4,1.3-1.4c0.5,0,3.4,0,3.4,0V9l-4.6,0
			c-5.1,0-6.3,3.8-6.3,6.3V18h-3v6h3C-207,30.8-207,39-207,39z"/>
	</g>
</g>
<g>
	<rect x="-151.4" class="st0" width="48" height="48"/>
	<g>
		<path class="st1" d="M-119.3,29.2c-0.2,0-0.4,0.1-0.5,0.2c-0.1,0.1-0.2,0.4-0.2,0.7v0.8h1.3v-0.8c0-0.3-0.1-0.6-0.2-0.7
			C-118.9,29.3-119.1,29.2-119.3,29.2z"/>
		<g>
			<path class="st1" d="M-124.6,29.2c-0.1,0-0.2,0-0.3,0.1c-0.1,0.1-0.2,0.1-0.3,0.2v4.8c0.1,0.1,0.2,0.2,0.4,0.3
				c0.1,0.1,0.2,0.1,0.4,0.1c0.2,0,0.3-0.1,0.4-0.2c0.1-0.1,0.1-0.3,0.1-0.5v-4c0-0.3-0.1-0.5-0.2-0.6
				C-124.2,29.2-124.4,29.2-124.6,29.2z"/>
			<g>
				<path class="st1" d="M-117.8,23h-19c-3,0-5.5,2.8-5.5,5.9v4.5c0,3.1,2.5,5.6,5.5,5.6h19c3,0,5.5-2.5,5.5-5.6v-4.5
					C-112.4,25.8-114.8,23-117.8,23z M-132.9,26.8h-1.8v9h-1.7v-9h-1.8v-1.5h5.2V26.8z M-127.9,35.8h-1.5v-0.9
					c-0.3,0.3-0.6,0.6-0.9,0.7c-0.3,0.2-0.6,0.2-0.9,0.2c-0.4,0-0.6-0.1-0.8-0.3c-0.2-0.2-0.3-0.6-0.3-1V28h1.5v6
					c0,0.2,0,0.3,0.1,0.4c0.1,0.1,0.2,0.1,0.3,0.1c0.1,0,0.3-0.1,0.4-0.2c0.2-0.1,0.3-0.2,0.5-0.4V28h1.5V35.8z M-122.4,34.2
					c0,0.5-0.1,1-0.4,1.3c-0.2,0.3-0.6,0.4-1,0.4c-0.3,0-0.6-0.1-0.8-0.2c-0.2-0.1-0.4-0.3-0.6-0.5v0.6h-1.5V25.3h1.5v3.4
					c0.2-0.2,0.4-0.4,0.7-0.5c0.2-0.1,0.5-0.2,0.7-0.2c0.5,0,0.8,0.2,1.1,0.5c0.3,0.3,0.4,0.8,0.4,1.5V34.2z M-117.1,32.1h-2.9v1.5
					c0,0.4,0,0.7,0.1,0.9c0.1,0.2,0.3,0.2,0.5,0.2c0.3,0,0.4-0.1,0.5-0.2c0.1-0.1,0.2-0.4,0.2-0.9v-0.4h1.6v0.4
					c0,0.8-0.2,1.4-0.6,1.8c-0.4,0.4-0.9,0.6-1.7,0.6c-0.7,0-1.2-0.2-1.6-0.6c-0.4-0.4-0.6-1-0.6-1.8v-3.5c0-0.7,0.2-1.2,0.6-1.6
					c0.4-0.4,1-0.6,1.7-0.6c0.7,0,1.2,0.2,1.6,0.6c0.4,0.4,0.6,1,0.6,1.7V32.1z"/>
				<polygon class="st1" points="-136.7,9 -134.4,16 -134.4,20.6 -132.5,20.6 -132.5,15.8 -130.2,9 -132.2,9 -133.4,13.6 
					-133.5,13.6 -134.7,9 				"/>
				<path class="st1" d="M-129.4,12.4c-0.5,0.4-0.7,0.9-0.7,1.6v4.4c0,0.7,0.2,1.3,0.7,1.7c0.5,0.4,1,0.6,1.8,0.6
					c0.8,0,1.4-0.2,1.8-0.6c0.4-0.4,0.7-1,0.7-1.7V14c0-0.7-0.2-1.2-0.7-1.6c-0.5-0.4-1-0.6-1.7-0.6
					C-128.3,11.8-128.9,12-129.4,12.4z M-126.9,13.9v4.7c0,0.2-0.1,0.4-0.2,0.5c-0.1,0.1-0.3,0.2-0.6,0.2c-0.2,0-0.4-0.1-0.5-0.2
					c-0.1-0.1-0.2-0.3-0.2-0.5v-4.7c0-0.2,0.1-0.3,0.2-0.5c0.1-0.1,0.3-0.2,0.5-0.2c0.2,0,0.4,0.1,0.5,0.2
					C-126.9,13.6-126.9,13.7-126.9,13.9z"/>
				<path class="st1" d="M-118.9,20.6V12h-1.7v6.5c-0.2,0.2-0.3,0.3-0.5,0.5c-0.2,0.1-0.4,0.2-0.5,0.2c-0.2,0-0.3,0-0.3-0.1
					c-0.1-0.1-0.1-0.2-0.1-0.4V12h-1.7v7.1c0,0.5,0.1,0.9,0.3,1.1c0.2,0.3,0.5,0.4,0.9,0.4c0.3,0,0.7-0.1,1-0.3
					c0.3-0.2,0.7-0.4,1-0.8v0.9H-118.9z"/>
			</g>
		</g>
	</g>
</g>
<g>
	<rect x="-75.7" class="st0" width="48" height="48"/>
	<g>
		<path class="st1" d="M-37.5,12.4c-1.2,0.7-2.5,1.2-3.9,1.5c-1.1-1.2-2.7-1.9-4.5-1.9c-3.4,0-6.2,2.7-6.2,6.1
			c0,0.5,0.1,0.9,0.2,1.4c-5.1-0.3-9.7-2.7-12.7-6.3c-0.5,0.9-0.8,1.9-0.8,3c0,2.1,1.1,4,2.7,5c-1,0-2-0.3-2.8-0.8c0,0,0,0.1,0,0.1
			c0,2.9,2.1,5.4,4.9,5.9c-0.5,0.1-1.1,0.2-1.6,0.2c-0.4,0-0.8,0-1.2-0.1c0.8,2.4,3.1,4.2,5.8,4.2c-2.1,1.6-4.8,2.6-7.6,2.6
			c-0.5,0-1,0-1.5-0.1c2.7,1.7,6,2.7,9.4,2.7c11.3,0,17.5-9.2,17.5-17.2c0-0.3,0-0.5,0-0.8c1.2-0.9,2.2-1.9,3.1-3.1
			c-1.1,0.5-2.3,0.8-3.5,1C-38.9,15-38,13.9-37.5,12.4z"/>
	</g>
</g>
<g>
	<rect class="st0" width="48" height="48"/>
	<g>
		<path class="st1" d="M33.2,9H14.8C11.6,9,9,11.6,9,14.8v6.1v12.3c0,3.2,2.6,5.8,5.8,5.8h18.4c3.2,0,5.8-2.6,5.8-5.8V20.9v-6.1
			C39,11.6,36.4,9,33.2,9z M34.9,12.5l0.7,0v0.7v4.4l-5.1,0l0-5.1L34.9,12.5z M19.7,20.9c1-1.3,2.5-2.2,4.3-2.2s3.3,0.9,4.3,2.2
			c0.6,0.9,1,1.9,1,3.1c0,2.9-2.4,5.3-5.3,5.3c-2.9,0-5.3-2.4-5.3-5.3C18.7,22.9,19.1,21.8,19.7,20.9z M36.1,33.2
			c0,1.6-1.3,2.9-2.9,2.9H14.8c-1.6,0-2.9-1.3-2.9-2.9V20.9h4.5c-0.4,1-0.6,2-0.6,3.1c0,4.5,3.7,8.2,8.2,8.2c4.5,0,8.2-3.7,8.2-8.2
			c0-1.1-0.2-2.1-0.6-3.1h4.5V33.2z"/>
	</g>
</g>
</svg>
