<?xml version="1.0" encoding="utf-8"?>
<!-- Generator: Adobe Illustrator 22.0.1, SVG Export Plug-In . SVG Version: 6.00 Build 0)  -->
<svg version="1.1" id="logo" xmlns="http://www.w3.org/2000/svg" xmlns:xlink="http://www.w3.org/1999/xlink" x="0px" y="0px"
	 viewBox="0 0 200 179.2" style="enable-background:new 0 0 200 179.2;" xml:space="preserve">
<style type="text/css">
	.st0{fill:#FFFFFF;}
	.st1{fill:#666565;stroke:#FFFFFF;stroke-miterlimit:10;}
	.st2{fill:none;stroke:#FFFFFF;stroke-width:4.4111;stroke-miterlimit:10;}
	.st3{fill:none;}
	.st4{fill:none;stroke:#FFFFFF;stroke-miterlimit:10;}
	.st5{fill:none;stroke:#FFFFFF;stroke-width:2;stroke-linecap:round;stroke-linejoin:round;stroke-miterlimit:10;}
	.st6{fill:none;stroke:#FFFFFF;stroke-width:2;stroke-miterlimit:10;}
	.st7{fill:#666665;stroke:#FFFFFF;stroke-miterlimit:10;}
	.st8{fill:none;stroke:#FFFFFF;stroke-width:2.1;stroke-miterlimit:10;}
	.st9{fill:none;stroke:#FFFFFF;stroke-width:2;stroke-linejoin:round;stroke-miterlimit:10;}
	.st10{fill:none;stroke:#FFFFFF;stroke-linejoin:round;stroke-miterlimit:10;}
</style>
<g id="XMLID_222_">
	<path class="st0" d="M278.8,82.3l-1.4-2.9h2.2l-2.2-4.7h2.2L271.2,57l-8.5,17.7h2.2l-2.2,4.7h2.2l-1.3,2.7l0,0l3.7,1.7
		c1.8-0.3,1.9-0.3,3.8-0.6L278.8,82.3z"/>
	<polygon class="st0" points="271.2,83.2 271.2,57 279.7,74.7 277.5,74.7 279.7,79.4 277.5,79.4 278.8,82.3 	"/>
</g>
<g id="XMLID_217_">
	<path class="st0" d="M367.1,77.4h-3.3l1.6,3.3c-3.1-0.5-5.1-0.8-5.1-0.8l-5.7-0.4l-2.1-0.2c0,0-3,0-8,0l0.9-2h-3.3l3.3-6.9h-3.3
		l12.5-26.2l12.5,26.2h-3.3L367.1,77.4z"/>
	<path class="st0" d="M367.1,77.4h-3.3l1.6,3.3c-3.1-0.5-5.1-0.8-5.1-0.8l-5.7-0.4V44.3l12.5,26.2h-3.3L367.1,77.4z"/>
</g>
<g id="XMLID_212_">
	<path class="st0" d="M324.4,79.7l1.5-3.2H324l1.9-4H324l7.3-15.3l7.3,15.3h-1.9l1.9,4h-1.9l1.4,3c-2.1,0-4.4,0.1-6.8,0.1
		L324.4,79.7z"/>
	<path class="st0" d="M338.6,76.5h-1.9l1.4,3c-2.1,0-4.4,0.1-6.8,0.1V57.2l7.3,15.3h-1.9L338.6,76.5z"/>
</g>
<g id="XMLID_209_">
	<path class="st0" d="M257.2,77.1h-2.8l1.5,3c-0.8-0.1-1.5-0.2-2.4-0.2c0,0-1.7,0.4-3.4,2.9h-2.3v2.8c-0.5,0-0.9-0.1-1.3-0.1
		c-0.6-0.1-1.1-0.2-1.3-0.3l0,0v-2.4h-9.4l0.5-1.1l2.3-4.6h-2.8l2.8-5.7h-2.8l10.7-21.6l10.7,21.6h-2.8L257.2,77.1z"/>
	<path class="st0" d="M257.2,77.1h-2.8l1.5,3c-0.8-0.1-1.5-0.2-2.4-0.2c0,0-1.7,0.4-3.4,2.9h-2.3v2.8c-0.5,0-0.9-0.1-1.3-0.1V49.8
		l10.7,21.6h-2.8L257.2,77.1z"/>
</g>
<path id="XMLID_206_" class="st1" d="M267.3,91.4"/>
<path class="st2" d="M226.2,77c6-36.3,37.5-63.9,75.5-63.9c40.1,0,73.1,30.9,76.3,70.2"/>
<path class="st2" d="M227.7,109.3c8.7,32.7,38.5,56.8,73.9,56.8c35.4,0,65.1-24,73.9-56.6"/>
<g id="XMLID_134_">
	<path id="XMLID_135_" class="st0" d="M224.5,130.6l-0.9-1.9l-11.7,5.7l-0.9-1.8l11.7-5.7l-0.9-1.9l1.9-0.9l2.7,5.6L224.5,130.6z"/>
	<path id="XMLID_149_" class="st0" d="M230.1,135.8l-13.1,7.8l-1-1.7l6.1-3.7l-1.1-1.8l-6.1,3.7l-1-1.7l13.1-7.8l1,1.7l-5.1,3
		l1.1,1.8l5.1-3L230.1,135.8z"/>
	<path id="XMLID_153_" class="st0" d="M223.6,146.8l-1.2-1.6l-3.1,1.7l-1.1-1.6l13.7-7l1.2,1.7l-11,10.8l-1.2-1.7L223.6,146.8z
		 M225.2,145.3l4.1-3.7l0,0l-4.8,2.7L225.2,145.3z"/>
	<path id="XMLID_156_" class="st0" d="M240.4,148.8l-11.4,10l-1.3-1.5l7-6.2l-7.9,5.2l-0.9-1.1l6.2-7.1l0,0l-7,6.2l-1.3-1.5l11.4-10
		l1.8,2.1l-6,7l0,0l7.7-5L240.4,148.8z"/>
	<path id="XMLID_180_" class="st0" d="M241.3,152.6l-2.6,2.7l1.5,1.4l-1.5,1.6l-1.5-1.4l-3.4,3.6l2.3,2.1l-1.5,1.6l-3.7-3.5l10.5-11
		l3.6,3.4l-1.5,1.6L241.3,152.6z"/>
	<path id="XMLID_182_" class="st0" d="M245.9,159.5l0.4-0.5c0.7-0.8,0.7-1.5,0.3-1.9c-0.4-0.3-1-0.2-1.5,0.3c-0.4,0.5-0.7,1-0.7,1.8
		l-0.4,3.7c-0.2,1.5-0.3,2.4-1.4,3.8c-1.4,1.7-3.2,1.8-4.5,0.7c-1.3-1-1.5-2.8-0.1-4.5l1-1.2l1.6,1.3l-0.9,1.1
		c-0.6,0.7-0.6,1.3-0.2,1.7c0.4,0.3,1,0.2,1.6-0.5c0.5-0.6,0.7-1.2,0.8-2l0.2-2.9c0.2-2,0.2-2.6,1.5-4.3c1.3-1.6,3.1-1.8,4.4-0.7
		c1.3,1.1,1.4,2.9,0.1,4.5l-0.7,0.8L245.9,159.5z"/>
	<path id="XMLID_199_" class="st0" d="M249.3,175.2l1.6-6.2c-0.2-0.1-0.5-0.3-0.6-0.3l-3.3,5.2l-1.7-1.1l8.1-12.8l2.9,1.8
		c1.6,1,1.4,3.2,0.1,5.2c-1.2,1.9-2.6,2.7-3.8,2.8l-1.7,6.6L249.3,175.2z M251.7,166.7l0.5,0.3c1.1,0.7,1.5,0.7,2.7-1.2
		c0.7-1,1-1.9,0.3-2.4l-1.1-0.7L251.7,166.7z"/>
	<path id="XMLID_203_" class="st0" d="M254.5,178.2l-1.8-1l7.3-13.3l1.8,1L254.5,178.2z"/>
	<path id="XMLID_218_" class="st0" d="M260.6,181.1l-2-0.9l4.1-14.8l2,0.9l-3.4,10.8l0,0l6.1-9.6l2,0.9L260.6,181.1z"/>
	<path id="XMLID_227_" class="st0" d="M271.4,171.5l-1.3,3.5l1.9,0.7l-0.7,2l-1.9-0.7l-1.7,4.6l2.9,1.1l-0.7,2L265,183l5.2-14.3
		l4.6,1.7l-0.7,2L271.4,171.5z"/>
	<path id="XMLID_229_" class="st0" d="M276.3,186.7l-0.2-6.4c-0.3-0.1-0.5-0.2-0.6-0.2l-1.6,5.9l-1.9-0.5l4-14.6l3.3,0.9
		c1.9,0.5,2.3,2.6,1.6,5c-0.6,2.2-1.7,3.4-2.8,3.8l0.3,6.8L276.3,186.7z M276.1,177.9l0.6,0.2c1.3,0.4,1.7,0.2,2.3-1.9
		c0.3-1.2,0.4-2.1-0.4-2.4l-1.3-0.3L276.1,177.9z"/>
	<path id="XMLID_232_" class="st0" d="M288.2,185.5l-1.9-0.3l-0.9,3.4l-1.9-0.3l4.5-14.7l2,0.3l0.1,15.4l-2-0.3L288.2,185.5z
		 M288.2,183.2l0.2-5.5l0,0l-1.4,5.3L288.2,183.2z"/>
	<path id="XMLID_235_" class="st0" d="M299.4,174.8l-1,15.2l-2-0.1l-1.4-8.8l0,0l-0.6,8.7l-2-0.1l1-15.2l2.1,0.1l1.3,8.5l0,0
		l0.6-8.4L299.4,174.8z"/>
	<path id="XMLID_237_" class="st0" d="M304.7,179.1l0-1.2c0-0.5-0.4-1.2-1-1.2c-0.7,0-1,0.8-1,1.3l0.2,8.8c0,0.5,0.3,1.2,1.1,1.2
		c0.8,0,1.1-0.7,1.1-2l-0.1-2.3l-1.1,0l0-2.2l3-0.1l0.1,4.7c0,2.1-0.8,3.9-2.9,4c-2.3,0-3.1-1.8-3.1-3.3l-0.2-8.8
		c0-1.5,0.7-3.4,3-3.5c2.1,0,3,1.8,3.1,3.3l0,1.2L304.7,179.1z"/>
	<path id="XMLID_239_" class="st0" d="M313.9,187l0.2,2.2l-4.7,0.5l-1.5-15.1l2-0.2l1.3,13L313.9,187z"/>
	<path id="XMLID_241_" class="st0" d="M315.9,175.7l0.6,3.7l2-0.3l0.4,2.1l-2,0.3l0.8,4.9l3.1-0.5l0.4,2.1l-5.1,0.9l-2.5-15l4.8-0.8
		l0.4,2.1L315.9,175.7z"/>
	<path id="XMLID_243_" class="st0" d="M327.8,186.5l-3.4-5.5c-0.3,0.1-0.6,0.1-0.6,0.2l1.5,5.9l-2,0.5l-3.7-14.7l3.3-0.8
		c1.9-0.5,3.3,1.1,3.9,3.5c0.6,2.2,0.2,3.8-0.6,4.6l3.7,5.8L327.8,186.5z M323.2,179l0.6-0.2c1.3-0.3,1.6-0.6,1-2.8
		c-0.3-1.2-0.7-2-1.5-1.9l-1.3,0.3L323.2,179z"/>
	<path id="XMLID_246_" class="st0" d="M331.6,173.8l-0.2-0.6c-0.3-1-0.9-1.4-1.4-1.3c-0.5,0.2-0.7,0.8-0.5,1.4
		c0.2,0.6,0.5,1.1,1.1,1.6l2.9,2.3c1.2,0.9,1.9,1.5,2.5,3.2c0.7,2.1-0.2,3.7-1.7,4.2c-1.6,0.5-3.2-0.2-3.9-2.3l-0.5-1.5l1.9-0.7
		l0.5,1.3c0.3,0.9,0.8,1.2,1.3,1c0.5-0.2,0.7-0.8,0.4-1.6c-0.3-0.8-0.7-1.3-1.3-1.7l-2.4-1.6c-1.6-1.3-2.2-1.6-2.8-3.5
		c-0.7-1.9,0.1-3.6,1.7-4.2c1.6-0.6,3.2,0.3,3.9,2.2l0.3,1L331.6,173.8z"/>
	<path id="XMLID_248_" class="st0" d="M344.7,176.3l-1.8,0.9l1.2,3.4l-1.7,0.8l-4.5-14.7l1.8-0.9l8.7,12.6l-1.8,0.9L344.7,176.3z
		 M343.4,174.5l-2.9-4.6l0,0l1.8,5.2L343.4,174.5z"/>
	<path id="XMLID_251_" class="st0" d="M347.8,166.2l-0.3-0.5c-0.5-0.9-1.2-1.2-1.6-1c-0.4,0.3-0.5,0.9-0.2,1.5
		c0.3,0.6,0.7,0.9,1.4,1.3l3.3,1.6c1.3,0.7,2.2,1.1,3.1,2.7c1.1,1.9,0.5,3.6-0.9,4.5c-1.4,0.8-3.2,0.4-4.3-1.4l-0.8-1.4l1.8-1
		l0.7,1.2c0.5,0.8,1,1,1.5,0.7c0.4-0.3,0.5-0.9,0.1-1.7c-0.4-0.7-0.9-1.1-1.6-1.4l-2.6-1.1c-1.8-0.9-2.4-1.1-3.5-2.9
		c-1-1.8-0.7-3.5,0.8-4.4c1.5-0.9,3.2-0.3,4.3,1.4l0.5,0.9L347.8,166.2z"/>
	<path id="XMLID_253_" class="st0" d="M353.7,162.2l-0.4-0.5c-0.6-0.9-1.3-1.1-1.7-0.8c-0.4,0.3-0.5,0.9-0.1,1.5
		c0.4,0.5,0.7,0.9,1.5,1.2l3.5,1.4c1.4,0.5,2.3,0.9,3.3,2.4c1.3,1.8,0.8,3.6-0.5,4.5c-1.3,0.9-3.1,0.7-4.4-1.1l-0.9-1.3l1.7-1.2
		l0.8,1.2c0.5,0.8,1.1,0.9,1.5,0.6c0.4-0.3,0.5-0.9-0.1-1.7c-0.5-0.7-1-1-1.7-1.3l-2.7-0.9c-1.9-0.8-2.5-0.9-3.7-2.6
		c-1.2-1.7-0.9-3.5,0.5-4.5c1.4-1,3.2-0.6,4.4,1.1l0.6,0.9L353.7,162.2z"/>
	<path id="XMLID_255_" class="st0" d="M360.5,155.5l5.6,6.7c1,1.2,1.5,3.2-0.1,4.5c-1.7,1.4-3.5,0.5-4.5-0.7l-5.6-6.7
		c-1-1.2-1.6-3.1,0.2-4.5C357.6,153.5,359.5,154.3,360.5,155.5z M358.9,156.9c-0.3-0.3-1.1-0.8-1.5-0.4c-0.5,0.5-0.2,1.3,0,1.6
		l5.6,6.7c0.3,0.4,1.1,0.8,1.6,0.4c0.4-0.4,0.2-1.2-0.1-1.6L358.9,156.9z"/>
	<path id="XMLID_259_" class="st0" d="M365.2,152.7l-0.8-0.9c-0.3-0.3-1.1-0.6-1.5-0.2c-0.5,0.5-0.2,1.3,0.1,1.6l6.2,6.2
		c0.3,0.3,1.1,0.7,1.6,0.2c0.4-0.4,0.1-1.2-0.2-1.5l-0.8-0.9l1.5-1.4l0.8,0.9c1.1,1.1,1.7,3.1,0.3,4.5c-1.6,1.6-3.5,0.8-4.6-0.2
		l-6.2-6.3c-1.1-1.1-1.8-3-0.2-4.6c1.5-1.4,3.4-0.8,4.5,0.3l0.8,0.9L365.2,152.7z"/>
	<path id="XMLID_261_" class="st0" d="M377,155.8l-1.4,1.5l-11.3-10.1l1.4-1.5L377,155.8z"/>
	<path id="XMLID_263_" class="st0" d="M378.3,148.7l-1.2,1.5l2.5,2.5l-1.2,1.5L367.9,143l1.3-1.6l13.4,7.6l-1.3,1.6L378.3,148.7z
		 M376.4,147.6l-4.7-2.9l0,0l3.9,3.9L376.4,147.6z"/>
	<path id="XMLID_266_" class="st0" d="M375.4,136.4l-1.2,1.7l10.7,7.4l-1.2,1.7l-10.7-7.4l-1.2,1.7l-1.8-1.2l3.5-5.1L375.4,136.4z"
		/>
	<path id="XMLID_268_" class="st0" d="M388.2,140.3l-1,1.7l-13-7.8l1-1.7L388.2,140.3z"/>
	<path id="XMLID_270_" class="st0" d="M381.5,127.5l7.8,4c1.4,0.7,2.6,2.4,1.7,4.2c-1,2-3.1,1.8-4.4,1.1l-7.8-4
		c-1.4-0.7-2.6-2.3-1.6-4.3C378.1,126.7,380.1,126.8,381.5,127.5z M380.6,129.3c-0.4-0.2-1.3-0.3-1.6,0.2c-0.3,0.6,0.3,1.3,0.6,1.5
		l7.8,4c0.4,0.2,1.3,0.3,1.6-0.3c0.3-0.5-0.3-1.2-0.7-1.4L380.6,129.3z"/>
	<path id="XMLID_273_" class="st0" d="M381.5,119.3l14,5.8l-0.8,1.9l-8.8-1.5l0,0l8,3.3l-0.8,1.9l-14-5.8l0.8-2l8.5,1.5l0,0
		l-7.8-3.2L381.5,119.3z"/>
</g>
<g id="XMLID_56_">
	<g>
		<path id="XMLID_504_" class="st0" d="M272.2,144.8h-1.5l-0.3,2.1h-1.5l1.8-8.8h1.6l1.8,8.8h-1.6L272.2,144.8z M271.9,143.5
			l-0.5-3.2h0l-0.5,3.2H271.9z"/>
		<path id="XMLID_502_" class="st0" d="M280.5,138v8.8h-1.6l-1.6-5.1h0v5.1h-1.6V138h1.7l1.5,4.9h0V138H280.5z"/>
		<path id="XMLID_500_" class="st0" d="M285.5,140.6v-0.7c0-0.3-0.3-0.7-0.7-0.7c-0.6,0-0.8,0.5-0.8,0.7v5.1c0,0.3,0.2,0.7,0.8,0.7
			c0.6,0,0.9-0.4,0.9-1.1v-1.3h-0.9v-1.3h2.3v2.7c0,1.2-0.7,2.3-2.3,2.3c-1.8,0-2.4-1.1-2.4-2v-5.1c0-0.9,0.6-2,2.4-2
			c1.6,0,2.3,1.1,2.3,2v0.7H285.5z"/>
		<path id="XMLID_498_" class="st0" d="M292.5,145.6v1.3h-3.6V138h1.6v7.6H292.5z"/>
		<path id="XMLID_496_" class="st0" d="M295.8,139.3v2.2h1.6v1.3h-1.6v2.9h2.4v1.3h-4V138h3.8v1.3H295.8z"/>
		<path id="XMLID_493_" class="st0" d="M303.5,146.8l-1.5-3.6c-0.2,0-0.4,0-0.5,0v3.6H300V138h2.6c1.5,0,2.2,1.1,2.2,2.5
			c0,1.3-0.6,2.2-1.3,2.5l1.7,3.8H303.5z M301.5,141.9h0.5c1,0,1.3-0.1,1.3-1.4c0-0.7-0.2-1.3-0.8-1.3h-1V141.9z"/>
		<path id="XMLID_491_" class="st0" d="M309.6,140.5v-0.4c0-0.6-0.3-1-0.7-1c-0.4,0-0.7,0.3-0.7,0.7c0,0.4,0.1,0.7,0.4,1.1l1.6,1.8
			c0.6,0.7,1,1.2,1,2.2c0,1.3-1.1,2-2.3,2c-1.3,0-2.3-0.7-2.3-2v-0.9h1.6v0.8c0,0.5,0.3,0.8,0.7,0.8c0.4,0,0.7-0.3,0.7-0.8
			c0-0.5-0.2-0.8-0.5-1.2l-1.3-1.3c-0.8-1-1.2-1.3-1.2-2.5c0-1.2,1-2,2.3-2c1.3,0,2.3,0.8,2.3,2v0.6H309.6z"/>
		<path id="XMLID_489_" class="st0" d="M313,145.3h1.6v1.6H313V145.3z"/>
		<path id="XMLID_486_" class="st0" d="M321,139.9v5.1c0,0.9-0.7,2-2.3,2c-1.7,0-2.4-1.1-2.4-2v-5.1c0-0.9,0.6-2,2.4-2
			C320.3,137.9,321,139,321,139.9z M319.4,139.9c0-0.3-0.3-0.7-0.7-0.7c-0.6,0-0.8,0.5-0.8,0.7v5.1c0,0.3,0.2,0.8,0.8,0.8
			c0.5,0,0.7-0.5,0.7-0.8V139.9z"/>
		<path id="XMLID_483_" class="st0" d="M326.4,146.8l-1.5-3.6c-0.2,0-0.4,0-0.5,0v3.6h-1.6V138h2.6c1.5,0,2.2,1.1,2.2,2.5
			c0,1.3-0.6,2.2-1.3,2.5l1.7,3.8H326.4z M324.4,141.9h0.5c1,0,1.3-0.1,1.3-1.4c0-0.7-0.2-1.3-0.8-1.3h-1V141.9z"/>
		<path id="XMLID_481_" class="st0" d="M332.6,140.6v-0.7c0-0.3-0.3-0.7-0.7-0.7c-0.6,0-0.8,0.5-0.8,0.7v5.1c0,0.3,0.2,0.7,0.8,0.7
			c0.6,0,0.9-0.4,0.9-1.1v-1.3h-0.9v-1.3h2.3v2.7c0,1.2-0.7,2.3-2.3,2.3c-1.8,0-2.4-1.1-2.4-2v-5.1c0-0.9,0.6-2,2.4-2
			c1.6,0,2.3,1.1,2.3,2v0.7H332.6z"/>
	</g>
</g>
<g id="XMLID_1_">
	<g>
		<path id="XMLID_435_" class="st0" d="M277.7,42.1v2.4h1.8v1.4h-1.8v3.2h2.7v1.4H276v-9.8h4.2v1.4H277.7z"/>
		<path id="XMLID_433_" class="st0" d="M285.5,43.5v-0.4c0-0.7-0.4-1.1-0.8-1.1c-0.4,0-0.8,0.3-0.8,0.8c0,0.4,0.1,0.7,0.5,1.2l1.8,2
			c0.7,0.8,1.1,1.3,1.1,2.5c0,1.4-1.2,2.2-2.6,2.2c-1.4,0-2.5-0.8-2.5-2.2v-1h1.8v0.9c0,0.6,0.3,0.9,0.8,0.9c0.4,0,0.8-0.3,0.8-0.9
			c0-0.5-0.2-0.9-0.6-1.3l-1.5-1.5c-0.9-1.1-1.3-1.4-1.3-2.7c0-1.3,1.1-2.2,2.6-2.2c1.5,0,2.5,0.9,2.5,2.2v0.7H285.5z"/>
		<path id="XMLID_431_" class="st0" d="M294.5,42.1h-1.8v8.4h-1.8v-8.4h-1.8v-1.4h5.4V42.1z"/>
		<path id="XMLID_429_" class="st0" d="M295.5,48.8h1.8v1.8h-1.8V48.8z"/>
		<path id="XMLID_427_" class="st0" d="M303.2,40.7h1.8v9.8h-1.8v-8.4h-0.8v-1L303.2,40.7z"/>
		<path id="XMLID_424_" class="st0" d="M307,44.5c0-0.1,0-1.2,0-1.4c0-1.5,1-2.6,2.8-2.6c1.8,0,2.6,1.2,2.6,2.2c0,0,0,4.7,0,4.9
			c0,1.6-1.1,2.9-2.7,2.9c-1.7,0-2.4-1.2-2.4-2.2v-0.8h1.7v0.8c0,0.4,0.3,0.8,0.8,0.8c0.7,0,0.9-0.7,0.9-1.5v-1.6
			c-0.2,0.3-0.6,0.5-1.2,0.5C307.8,46.7,307,45.7,307,44.5z M308.8,44.5c0,0.5,0.4,0.8,0.9,0.8c0.6,0,0.9-0.3,0.9-0.5v-2
			c0-0.3-0.3-0.8-0.8-0.8c-0.7,0-1,0.4-1,1.2C308.8,43.3,308.8,44.4,308.8,44.5z"/>
		<path id="XMLID_420_" class="st0" d="M320,47.7c0,1.6-1.1,2.9-2.8,2.9c-1.7,0-2.9-1.3-2.9-2.9c0-1.4,0.7-2.1,1.6-2.5
			c-0.6-0.3-1.3-1.2-1.3-2.2c0-1.5,0.9-2.5,2.5-2.5c1.6,0,2.5,0.9,2.5,2.5c0,1-0.6,1.9-1.3,2.2C319.3,45.6,320,46.4,320,47.7z
			 M318.2,47.7c0-0.9-0.2-1.6-1-1.8c-0.8,0.2-1.1,0.8-1.1,1.8c0,1,0.4,1.5,1.2,1.5C318,49.3,318.2,48.4,318.2,47.7z M316.3,43.2
			c0,0.5,0.2,1,0.9,1.2c0.6-0.2,0.8-0.7,0.8-1.2c0-0.7-0.3-1.2-0.8-1.2S316.3,42.5,316.3,43.2z"/>
		<path id="XMLID_417_" class="st0" d="M327.3,46.7c0,0.1,0,1.2,0,1.4c0,1.5-1,2.6-2.8,2.6c-1.8,0-2.6-1.2-2.6-2.2c0,0,0-4.7,0-4.9
			c0-1.6,1-2.9,2.6-2.9c1.7,0,2.5,1.2,2.5,2.2v0.7h-1.7v-0.7c0-0.4-0.3-0.8-0.8-0.8c-0.7,0-0.9,0.8-0.9,1.5v1.5
			c0.2-0.3,0.6-0.5,1.2-0.5C326.6,44.5,327.3,45.6,327.3,46.7z M325.6,46.7c0-0.5-0.4-0.8-0.9-0.8c-0.5,0-0.9,0.3-0.9,0.5v2
			c0,0.3,0.3,0.8,0.8,0.8c0.7,0,1-0.4,1-1.2C325.5,48,325.6,46.8,325.6,46.7z"/>
	</g>
</g>
<g id="XMLID_194_">
	<path class="st0" d="M301.8,21.1c-2.2,0-3.9,1.8-3.9,3.9c0,2.2,1.8,3.9,3.9,3.9c2.2,0,3.9-1.7,3.9-3.9
		C305.7,22.8,303.9,21.1,301.8,21.1z M299.7,22.4c0.3-0.3,0.7-0.3,0.9-0.1c0.2,0.2,0,0.6-0.3,0.9c-0.3,0.3-0.7,0.3-0.9,0.1
		S299.4,22.6,299.7,22.4z M301.8,27.4c-1.1,0-2-0.5-2-1c0-0.6,0.9-1,2-1c1.1,0,2,0.5,2,1C303.7,26.9,302.9,27.4,301.8,27.4z"/>
</g>
<g id="XMLID_191_">
	<path class="st0" d="M279.6,26.3c-2.2,0-3.9,1.8-3.9,3.9c0,2.1,1.8,3.9,3.9,3.9c2.2,0,3.9-1.8,3.9-3.9
		C283.5,28,281.8,26.3,279.6,26.3z M277.5,27.6c0.3-0.3,0.7-0.3,0.9-0.1c0.2,0.2,0,0.6-0.3,0.9c-0.3,0.3-0.7,0.3-0.9,0.1
		C277.1,28.2,277.2,27.8,277.5,27.6z M279.6,32.5c-1.1,0-2-0.5-2-1c0-0.6,0.9-1,2-1c1.1,0,2,0.5,2,1C281.6,32,280.7,32.5,279.6,32.5
		z"/>
</g>
<g id="XMLID_188_">
	<path class="st0" d="M323.2,26.3c-2.2,0-3.9,1.8-3.9,3.9c0,2.1,1.8,3.9,3.9,3.9c2.2,0,3.9-1.8,3.9-3.9
		C327.1,28,325.3,26.3,323.2,26.3z M321.1,27.6c0.3-0.3,0.7-0.3,0.9-0.1c0.2,0.2,0,0.6-0.3,0.9c-0.3,0.3-0.7,0.3-0.9,0.1
		C320.7,28.2,320.8,27.8,321.1,27.6z M323.2,32.5c-1.1,0-2-0.5-2-1c0-0.6,0.9-1,2-1c1.1,0,2,0.5,2,1C325.1,32,324.3,32.5,323.2,32.5
		z"/>
</g>
<polygon id="XMLID_196_" class="st3" points="292.9,140.5 300.6,140.5 300.6,140.5 292.9,140.5 "/>
<g id="XMLID_294_">
	<path class="st3" d="M235.8,105.9"/>
</g>
<g id="XMLID_114_">
	<path class="st3" d="M235.8,80.5"/>
</g>
<g id="XMLID_173_">
	<polygon class="st0" points="205,75.4 226.4,83.6 204.4,77.3 	"/>
</g>
<g id="XMLID_170_">
	<polygon class="st0" points="209.3,85.5 220.8,87.9 209.1,87.5 	"/>
</g>
<g id="XMLID_167_">
	<polygon class="st0" points="210.5,96.1 220.8,94.8 210.9,98 	"/>
</g>
<g id="XMLID_164_">
	<polygon class="st0" points="207.3,101.7 224.4,98.9 207.7,103.7 	"/>
</g>
<g id="XMLID_161_">
	<polygon class="st0" points="203.3,108 225.4,101.6 203.9,109.9 	"/>
</g>
<g id="XMLID_158_">
	<polygon class="st0" points="200.3,113.6 225.2,105.9 200.9,115.5 	"/>
</g>
<path id="XMLID_157_" class="st4" d="M382.9,89.8c0-0.4-0.2-0.8-0.6-0.8c-0.1,0-0.5-0.2-0.7-0.2c-0.3-0.1-0.7-0.1-1,0
	c-0.2,0-1,0.3-1.1,0.4c-0.6,0.3-0.6,0.4-1,1c-0.2,0.4-0.1,1.2,0.3,1.4c0.9,0.4,1.4,1.1,2.4,0.9c0.3,0,0.7-0.1,0.9-0.4
	c0.3-0.3,0.4-0.6,0.5-0.9c0.1-0.3,0.1-0.3,0.2-0.6"/>
<path id="XMLID_22_" class="st5" d="M240.2,102.7c0,0,4.6-6.3,44.9,9.8c0,0-0.8-0.1,11.1,3.3"/>
<path id="XMLID_9_" class="st6" d="M311.4,117.5c5.6,0.2,16.6,0.6,24.3,0.5c0,0,1.6,0,4.2-0.1"/>
<g id="XMLID_20_">
	<path class="st0" d="M355.3,107.1c-1.4-0.1-2.9,0.1-4.2,0.3c-1.4,0.3-2.7,0.8-4,1.4c-1.2,0.6-2.3,1.5-3.3,2.5c-1,1-1.6,2.2-2.2,3.5
		l0-0.1c-0.2,0.9-0.5,1.7-0.8,2.5c-0.3,0.8-0.7,1.6-1.1,2.3c-0.9,1.5-2.1,2.9-3.8,3.8l-0.6-1.5c2.8-0.9,5.6-1.9,8.4-2.9
		c1.4-0.5,2.8-1,4.1-1.6c1.4-0.5,2.7-1.1,3.9-1.8l-0.1,0.1c1.1-1.1,2.2-2.2,3.3-3.2c0.6-0.5,1.1-1,1.7-1.5c0.6-0.5,1.2-1,1.9-1.4
		c0,0,0.1,0,0.1,0c0,0,0,0.1,0,0.1c-1.1,1.1-2,2.3-2.9,3.5l-2.8,3.5c0,0-0.1,0.1-0.1,0.1l-0.1,0c-1.3,1-2.7,1.6-4.1,2.3
		c-1.4,0.6-2.8,1.2-4.2,1.7c-1.4,0.5-2.9,0.9-4.3,1.3c-1.4,0.4-2.9,0.8-4.3,1.2l0,0c-0.4,0.1-0.9-0.2-1-0.6
		c-0.1-0.4,0.1-0.8,0.4-0.9c0.7-0.3,1.3-0.7,1.8-1.2c0.5-0.5,1-1.1,1.5-1.8c0.4-0.7,0.8-1.4,1.1-2.1c0.3-0.7,0.6-1.5,0.8-2.2l0-0.1
		l0,0c0.7-1.3,1.5-2.6,2.6-3.7c1.1-1.1,2.3-1.9,3.6-2.5c1.3-0.6,2.8-1,4.2-1.2c1.4-0.2,2.9-0.3,4.3-0.1c0.1,0,0.1,0.1,0.1,0.1
		C355.4,107.1,355.4,107.1,355.3,107.1L355.3,107.1z"/>
</g>
<g id="XMLID_18_">
	<path class="st0" d="M313.9,80.9c-0.7-0.3-1.4-0.5-2.2-0.7c-0.4-0.1-0.7-0.2-1.1-0.3c-0.4-0.1-0.7-0.1-1-0.1l-0.1,0l-0.1-0.1
		c-2.4-1.9-4.7-3.9-7-5.9c-1.2-1-2.3-2-3.5-2.9c-1.1-0.9-2.4-2-3.5-2.7l1.3-0.4c-0.7,1.1-1.4,2.2-2.1,3.3c-0.7,1.1-1.5,2.1-2.3,3.2
		c-0.8,1-1.6,2.1-2.5,3c-0.5,0.5-0.9,1-1.5,1.4c-0.5,0.4-1.1,0.9-1.9,1.1l0.3-0.2c0.1-0.1,0.1-0.2,0-0.3c0-0.1,0,0,0,0
		c0.1,0.1,0.3,0.2,0.6,0.3c0.5,0.2,1,0.2,1.6,0.3l0,0c0.6,0,1.2,0.1,1.9,0.2c0.3,0,0.6,0.1,0.9,0.2c0.2,0,0.3,0.1,0.5,0.1
		c0.2,0.1,0.3,0.1,0.5,0.3l-0.1-0.1c0.3,0.1,0.5,0.3,0.7,0.5c0.2,0.2,0.4,0.5,0.3,0.8c0-0.3-0.2-0.5-0.4-0.6
		c-0.2-0.1-0.5-0.2-0.7-0.3l-0.1-0.1c0,0-0.2-0.1-0.3-0.1c-0.1,0-0.3,0-0.4,0c-0.3,0-0.6,0-0.9,0c-0.6,0-1.2,0-1.8,0.1l0,0
		c-0.6,0-1.2-0.1-1.8-0.2c-0.3-0.1-0.6-0.1-1-0.3c-0.2-0.1-0.4-0.3-0.5-0.6c-0.1-0.3-0.1-0.8,0.1-1.1l0.1-0.1l0.2-0.1
		c0.4-0.2,0.9-0.5,1.3-1c0.4-0.4,0.8-0.9,1.2-1.4c0.8-1,1.6-2,2.3-3c0.7-1,1.5-2.1,2.2-3.2c0.7-1.1,1.4-2.2,2.1-3.2l0.5-0.9l0.8,0.5
		c1.5,0.9,2.5,1.9,3.7,2.9c1.1,1,2.3,2.1,3.4,3.1c2.2,2.1,4.4,4.3,6.4,6.5l-0.3-0.1c0.4,0,0.8,0.2,1.2,0.3c0.4,0.1,0.7,0.3,1.1,0.5
		C312.6,80,313.3,80.4,313.9,80.9z"/>
</g>
<g id="XMLID_146_">
	<path class="st0" d="M308.5,80.9l-11.9-10.7l12.5,9.9c0.2,0.2,0.3,0.5,0.1,0.7C309,81.1,308.7,81.1,308.5,80.9
		C308.5,80.9,308.5,80.9,308.5,80.9z"/>
</g>
<g id="XMLID_143_">
	<path class="st0" d="M303.7,80.9l-7.9-7.7l8.5,6.9c0.2,0.2,0.2,0.5,0.1,0.7C304.2,81,303.9,81.1,303.7,80.9
		C303.7,80.9,303.7,80.9,303.7,80.9z"/>
</g>
<g id="XMLID_140_">
	<path class="st0" d="M299.4,80.5l-4.9-4.7l5.5,3.9c0.2,0.2,0.3,0.5,0.1,0.7C300,80.6,299.7,80.7,299.4,80.5
		C299.4,80.5,299.4,80.5,299.4,80.5z"/>
</g>
<g id="XMLID_137_">
	<path class="st0" d="M295.7,81.1l-3.9-3.7l4.5,2.9c0.2,0.1,0.3,0.5,0.2,0.7S296,81.3,295.7,81.1C295.8,81.1,295.7,81.1,295.7,81.1z
		"/>
</g>
<g>
	<path class="st0" d="M250.5,85.5c-0.3-0.1-0.6-0.2-0.9-0.4c-0.1-0.1-0.3-0.2-0.4-0.4c-0.1-0.2-0.2-0.3-0.3-0.6l0,0l0-0.1
		c0.4-1,0.7-2,1.4-2.9c0.3-0.4,0.7-0.9,1.2-1.3c0.2-0.2,0.5-0.4,0.7-0.5c0.3-0.2,0.5-0.3,0.9-0.4l0.1,0l0.1,0
		c1.1,0.1,2.3,0.1,3.4,0.3c1.1,0.2,2.3,0.5,3.4,0.8c1.1,0.4,2.2,0.8,3.2,1.3c1,0.5,2,1.2,2.8,2c-1.1-0.3-2.2-0.6-3.2-0.9
		c-1.1-0.3-2.1-0.5-3.2-0.7c-1.1-0.2-2.1-0.4-3.2-0.6c-1.1-0.2-2.2-0.2-3.2-0.4l0.2,0c-0.1,0-0.3,0.1-0.5,0.2
		c-0.2,0.1-0.4,0.2-0.6,0.3c-0.4,0.2-0.7,0.5-1.1,0.8c-0.3,0.3-0.7,0.7-1,1.1c-0.3,0.4-0.6,0.8-0.9,1.2l0-0.2c0,0,0,0.2,0,0.3
		c0,0.1,0.1,0.2,0.2,0.4C250.1,85.1,250.2,85.3,250.5,85.5z"/>
</g>
<path id="XMLID_133_" class="st4" d="M349.8,86.2c0-0.1-0.1-0.1-0.1-0.2c0-0.3-0.2-0.5-0.4-0.6c0,0-0.4-0.1-0.5-0.1
	c-0.2-0.1-0.5-0.1-0.7,0c-0.1,0-0.7,0.2-0.8,0.3c-0.4,0.2-0.6,0.5-0.8,1c-0.2,0.2-0.2,0.6,0.1,0.8c0.6,0.3,1.3,0.7,2,0.5
	c0.2,0,0.5-0.1,0.6-0.3c0.2-0.2,0.3-0.4,0.3-0.7c0.1-0.2,0.1-0.2,0.1-0.4C349.7,86.6,349.9,86.3,349.8,86.2z"/>
<path id="XMLID_132_" class="st4" d="M335.4,86.3c0,0,0-0.1-0.1-0.1c0-0.2-0.1-0.3-0.3-0.4c0,0-0.2-0.1-0.3-0.1c-0.1,0-0.3,0-0.4,0
	c-0.1,0-0.4,0.1-0.5,0.2c-0.3,0.1-0.4,0.3-0.5,0.6c-0.1,0.2-0.1,0.4,0,0.5c0.4,0.2,0.8,0.4,1.2,0.3c0.1,0,0.3-0.1,0.4-0.2
	c0.1-0.1,0.2-0.2,0.2-0.4c0.1-0.1,0.1-0.1,0.1-0.2C335.4,86.5,335.5,86.4,335.4,86.3z"/>
<path id="XMLID_131_" class="st4" d="M261.2,83c0,0,0-0.1-0.1-0.1c0-0.2-0.1-0.3-0.3-0.4c0,0-0.2-0.1-0.3-0.1c-0.1,0-0.3,0-0.4,0
	c-0.1,0-0.4,0.1-0.5,0.2c-0.3,0.1-0.4,0.3-0.5,0.6c-0.1,0.2-0.1,0.4,0,0.5c0.4,0.2,0.8,0.4,1.2,0.3c0.1,0,0.3-0.1,0.4-0.2
	c0.1-0.1,0.2-0.2,0.2-0.4c0.1-0.1,0.1-0.1,0.1-0.2C261.1,83.2,261.2,83,261.2,83z"/>
<path id="XMLID_130_" class="st7" d="M253.3,84C253.3,84,253.3,84,253.3,84c-0.1-0.2-0.1-0.3-0.2-0.3c0,0-0.1,0-0.2-0.1
	c-0.1,0-0.2,0-0.3,0c-0.1,0-0.3,0.1-0.3,0.1c-0.2,0.1-0.2,0.2-0.3,0.4c-0.1,0.1-0.1,0.2,0,0.3c0.2,0.1,0.5,0.3,0.8,0.2
	c0.1,0,0.2,0,0.2-0.1c0.1-0.1,0.1-0.2,0.1-0.3c0-0.1,0-0.1,0.1-0.2C253.3,84.2,253.4,84,253.3,84z"/>
<path id="XMLID_129_" class="st7" d="M256.3,82C256.3,82,256.3,82,256.3,82c0-0.1-0.1-0.2-0.2-0.2c0,0-0.1,0-0.1,0
	c-0.1,0-0.1,0-0.2,0c0,0-0.2,0.1-0.2,0.1c-0.1,0.1-0.2,0.2-0.2,0.3c0,0.1-0.1,0.2,0,0.2c0.2,0.1,0.4,0.2,0.6,0.2
	c0.1,0,0.1,0,0.2-0.1c0.1-0.1,0.1-0.1,0.1-0.2C256.2,82.2,256.2,82.2,256.3,82C256.3,82.1,256.3,82,256.3,82z"/>
<path class="st8" d="M352.3,116.2c5.1-1.1,10.8-3.9,16.8-5.4l7.3-1.6c7-2,12.5-4.8,12.5-4.8c8.1-5.8,7.7-6.3,7.7-6.3l-5.3,0.4
	c-1.4,0.4-7.5,1-7.5,1c4.3-4,11.5-7.8,11.5-7.8c-3.4-6.1-21.1-9.7-29.9-11.2c-3.1-0.5-5.1-0.8-5.1-0.8l-5.6-0.4l-2.1-0.2
	c0,0-3,0-8,0h0c-1.9,0-4,0-6.3,0.1c-2.1,0-4.4,0.1-6.8,0.1c-1.1,0-2.2,0-3.4,0.1c-1.1,0-2.3,0.1-3.5,0.1
	c-14.2,0.3-31.4,1.1-45.6,2.6c-2.6,0.3-5.2,0.6-7.6,0.9c-2,0.3-3.8,0.6-5.6,0.9c-2.7,0.5-5.2,1-7.2,1.6c0,0-6.6,0.2-10.6-0.1
	c-0.5,0-0.9-0.1-1.3-0.1c-0.6-0.1-1.1-0.2-1.3-0.3l0,0l-5.1-2c0,0-0.4-0.2-1.1-0.4c-0.7-0.3-1.6-0.7-2.6-1.1
	c-2.1-0.9-4.8-2.1-6.7-3.2c0,0-22.2-10.3-27.9-10.1c0,0-1.3,0.1,9.2,21.7c0,0,2.8,3.8-1.9,9.6c0,0-8.9,14.2-8.9,19.2
	c0,0,9.2,2.2,32.8-12.6c0,0,11.7-5,13.2-4.7"/>
<path id="XMLID_127_" class="st9" d="M389.2,97.4"/>
<path id="XMLID_126_" class="st4" d="M340.1,91.8c0,0,0-0.1-0.1-0.1c0-0.2-0.1-0.3-0.3-0.4c0,0-0.2-0.1-0.3-0.1c-0.1,0-0.3,0-0.4,0
	c-0.1,0-0.4,0.1-0.5,0.2c-0.3,0.1-0.4,0.3-0.5,0.6c-0.1,0.2-0.1,0.4,0,0.5c0.4,0.2,0.8,0.4,1.2,0.3c0.1,0,0.3-0.1,0.4-0.2
	c0.1-0.1,0.2-0.2,0.2-0.4c0.1-0.1,0.1-0.1,0.1-0.2C340,92.1,340.1,91.9,340.1,91.8z"/>
<path id="XMLID_125_" class="st4" d="M306.1,87.6c0,0,0-0.1-0.1-0.1c0-0.2-0.1-0.3-0.3-0.4c0,0-0.2-0.1-0.3-0.1c-0.1,0-0.3,0-0.4,0
	c-0.1,0-0.4,0.1-0.5,0.2c-0.3,0.1-0.4,0.3-0.5,0.6c-0.1,0.2-0.1,0.4,0,0.5c0.4,0.2,0.8,0.4,1.2,0.3c0.1,0,0.3-0.1,0.4-0.2
	c0.1-0.1,0.2-0.2,0.2-0.4c0.1-0.1,0.1-0.1,0.1-0.2C306.1,87.9,306.1,87.7,306.1,87.6z"/>
<path id="XMLID_124_" class="st4" d="M271.2,89.6c0-0.1-0.1-0.1-0.1-0.2c0-0.3-0.2-0.5-0.4-0.6c0,0-0.4-0.1-0.5-0.1
	c-0.2-0.1-0.5-0.1-0.7,0c-0.1,0-0.7,0.2-0.8,0.3c-0.4,0.2-0.6,0.5-0.8,1c-0.2,0.2-0.2,0.6,0.1,0.8c0.6,0.3,1.3,0.7,2,0.5
	c0.2,0,0.5-0.1,0.6-0.3c0.2-0.2,0.3-0.4,0.3-0.7c0.1-0.2,0.1-0.2,0.1-0.4C271.1,90,271.3,89.7,271.2,89.6z"/>
<path id="XMLID_123_" class="st4" d="M274.7,98.5c0-0.1-0.1-0.1-0.1-0.2c0-0.3-0.2-0.5-0.4-0.6c0,0-0.4-0.1-0.5-0.1
	c-0.2-0.1-0.5-0.1-0.7,0c-0.1,0-0.7,0.2-0.8,0.3c-0.4,0.2-0.6,0.5-0.8,1c-0.2,0.2-0.2,0.6,0.1,0.8c0.6,0.3,1.3,0.7,2,0.5
	c0.2,0,0.5-0.1,0.6-0.3c0.2-0.2,0.3-0.4,0.3-0.7c0.1-0.2,0.1-0.2,0.1-0.4C274.6,98.9,274.8,98.6,274.7,98.5z"/>
<path id="XMLID_122_" class="st4" d="M282,91.8c0,0,0-0.1-0.1-0.1c0-0.2-0.1-0.3-0.3-0.4c0,0-0.2-0.1-0.3-0.1c-0.1,0-0.3,0-0.4,0
	c-0.1,0-0.4,0.1-0.5,0.2c-0.3,0.1-0.4,0.3-0.5,0.6c-0.1,0.2-0.1,0.4,0,0.5c0.4,0.2,0.8,0.4,1.2,0.3c0.1,0,0.3-0.1,0.4-0.2
	c0.1-0.1,0.2-0.2,0.2-0.4c0.1-0.1,0.1-0.1,0.1-0.2C281.9,92.1,282,91.9,282,91.8z"/>
<path id="XMLID_121_" class="st4" d="M295.7,85.6C295.7,85.5,295.7,85.5,295.7,85.6c-0.1-0.2-0.1-0.3-0.2-0.3c0,0-0.2,0-0.2-0.1
	c-0.1,0-0.2,0-0.3,0c-0.1,0-0.3,0.1-0.3,0.1c-0.2,0.1-0.3,0.2-0.4,0.4c-0.1,0.1-0.1,0.3,0,0.3c0.3,0.1,0.6,0.3,0.9,0.2
	c0.1,0,0.2,0,0.3-0.1c0.1-0.1,0.1-0.2,0.1-0.3c0-0.1,0-0.1,0.1-0.2C295.6,85.7,295.7,85.6,295.7,85.6z"/>
<path id="XMLID_120_" class="st4" d="M317.2,91.1C317.2,91,317.2,91,317.2,91.1c-0.1-0.2-0.1-0.3-0.2-0.3c0,0-0.2,0-0.2-0.1
	c-0.1,0-0.2,0-0.3,0c-0.1,0-0.3,0.1-0.3,0.1c-0.2,0.1-0.3,0.2-0.4,0.4c-0.1,0.1-0.1,0.3,0,0.3c0.3,0.1,0.6,0.3,0.9,0.2
	c0.1,0,0.2,0,0.3-0.1c0.1-0.1,0.1-0.2,0.1-0.3c0-0.1,0-0.1,0.1-0.2C317.2,91.2,317.2,91.1,317.2,91.1z"/>
<path id="XMLID_119_" class="st4" d="M347.6,92.7C347.6,92.6,347.6,92.6,347.6,92.7c-0.1-0.2-0.1-0.3-0.2-0.3c0,0-0.2,0-0.2-0.1
	c-0.1,0-0.2,0-0.3,0c-0.1,0-0.3,0.1-0.3,0.1c-0.2,0.1-0.3,0.2-0.4,0.4c-0.1,0.1-0.1,0.3,0,0.3c0.3,0.1,0.6,0.3,0.9,0.2
	c0.1,0,0.2,0,0.3-0.1c0.1-0.1,0.1-0.2,0.1-0.3c0-0.1,0-0.1,0.1-0.2C347.6,92.8,347.6,92.7,347.6,92.7z"/>
<path id="XMLID_118_" class="st4" d="M388,96.7c0,0-4.2,4.2-5.6,3.5c0,0,7.4,4,15.4-2.8L388,96.7z"/>
<g id="XMLID_115_">
	<path class="st0" d="M387.5,93c-1.5,0.8-3,1.7-4.5,2.6c-1.4,0.9-2.9,1.8-4.1,3c-0.3,0.3-0.6,0.6-0.7,0.9c-0.2,0.3-0.3,0.6-0.1,0.7
		c0.2,0.5,1,0.5,1.7,0.3c1.5-0.4,3.1-1.2,4.6-2l0.1,0.1c-1.3,1.2-2.7,2.3-4.4,2.8c-0.5,0.1-0.9,0.2-1.5,0.1c-0.5-0.1-1.1-0.4-1.4-1
		c-0.1-0.1-0.1-0.3-0.1-0.5c0-0.2,0-0.3,0-0.5c0.1-0.3,0.2-0.5,0.3-0.7c0.3-0.4,0.6-0.7,1-1c1.4-1.2,2.9-2,4.4-2.8
		C384.3,94.3,385.8,93.6,387.5,93L387.5,93z"/>
</g>
<g id="XMLID_112_">
	<path class="st0" d="M363.4,85.3c-1.5,1.8-2.7,3.9-3.7,6c-1,2.1-1.7,4.3-1.8,6.6c-0.1,2.2,0.5,4.4,1.8,6.2c1.3,1.7,2.9,3.2,4.9,4.5
		l0.2,0.2l0.1,0.1c0.1,0.2,0.3,0.6,0.5,0.8c0.2,0.3,0.5,0.5,0.7,0.7c0.3,0.2,0.6,0.4,0.9,0.5c0.3,0.1,0.7,0.2,1.1,0.2l0,0.2
		c-0.4,0.1-0.8,0.3-1.3,0.3c-0.4,0-0.9-0.1-1.3-0.3c-0.4-0.2-0.8-0.4-1.2-0.7c-0.4-0.3-0.7-0.6-1-1l0.3,0.3c-2.2-1-4.4-2.6-5.7-4.8
		c-1.4-2.2-1.8-4.9-1.5-7.4c0.3-2.5,1.2-4.8,2.5-6.9c1.2-2.1,2.7-4,4.4-5.7L363.4,85.3z"/>
</g>
<g id="XMLID_109_">
	<path class="st0" d="M365.9,90.6c-0.4,1.2-0.7,2.5-0.8,3.7c-0.2,1.3-0.2,2.5,0,3.8c0.2,1.2,0.5,2.4,1.1,3.5
		c0.6,1.1,1.4,1.9,2.3,2.7l-0.2-0.1c0.9,0.3,1.8,0.6,2.7,0.8c0.4,0.1,0.9,0.2,1.3,0.2c0.4,0,0.9-0.1,0.8-0.1l-0.4,0.7
		c0-0.6,0-1.3-0.1-1.9c0-0.6-0.1-1.3-0.2-1.9c-0.2-1.2-0.6-2.4-1.4-2.9l-0.4-0.3l0-0.3c-0.1-0.5-0.1-0.9-0.1-1.4c0-0.5,0-0.9,0-1.4
		c0.1-0.9,0.3-1.9,0.7-2.7l0.2,0.1c-0.1,0.9,0,1.7,0.1,2.6c0.1,0.4,0.2,0.8,0.2,1.3c0.1,0.4,0.2,0.8,0.3,1.2l-0.4-0.5
		c0.8,0.4,1.4,1.1,1.8,1.8c0.4,0.7,0.7,1.4,0.8,2.2c0.2,0.7,0.3,1.5,0.3,2.2c0,0.7,0,1.4-0.1,2.2l-0.1,0.5l-0.4,0.2
		c-0.4,0.2-0.8,0.3-1.1,0.3c-0.3,0-0.6,0-0.9-0.1c-0.5-0.1-1-0.2-1.5-0.3c-1-0.3-1.9-0.6-2.8-1l-0.1-0.1l-0.1-0.1
		c-1-0.9-1.9-2-2.5-3.3c-0.6-1.3-0.9-2.6-1-3.9c-0.1-1.3,0.1-2.7,0.4-3.9c0.3-1.3,0.7-2.5,1.2-3.7L365.9,90.6z"/>
</g>
<path id="XMLID_108_" class="st10" d="M210.7,97.1"/>
<path id="XMLID_107_" class="st10" d="M206.6,104.9"/>
<g id="XMLID_104_">
	<path class="st0" d="M383.1,93.1c-0.5,0.4-1.2,0.6-1.8,0.8c-0.7,0.1-1.3,0-2-0.1c-0.7-0.1-1.3-0.4-1.9-0.8c-0.5-0.4-0.9-1-1-1.7
		l0.1,0c0.3,0.6,0.7,1,1.2,1.3c0.5,0.3,1.1,0.4,1.7,0.4c0.6,0,1.2-0.1,1.8-0.1C381.8,92.8,382.4,92.8,383.1,93.1L383.1,93.1z"/>
</g>
<g id="XMLID_13_">
	<path class="st0" d="M313.3,111.3c-0.2,1.7-0.6,3.4-1.1,5.1c-0.5,1.7-1,3.4-1.8,5c-0.7,1.6-1.5,3.2-2.7,4.7
		c-1.1,1.4-2.5,2.9-4.5,3.5l-0.6,0.2l-0.4-0.4c-1.1-1.1-1.9-2.2-2.6-3.4c-0.8-1.2-1.4-2.5-2-3.8c-0.6-1.3-1-2.6-1.4-4
		c-0.3-1.4-0.6-2.8-0.7-4.2l0-0.1l0-0.1c0.1-0.4,0.2-0.7,0.3-1c0.1-0.3,0.3-0.6,0.6-0.9c0.2-0.3,0.5-0.5,0.9-0.7
		c0.3-0.2,0.7-0.2,1.1-0.3l0.1,0l0.1,0c0.7,0.3,1.5,0.5,2.2,0.6c0.8,0.1,1.6,0.2,2.3-0.2c-0.6,0.5-1.5,0.7-2.3,0.7
		c-0.8,0-1.6-0.1-2.5-0.3l0.2,0c-0.5,0.1-0.9,0.4-1.2,0.8c-0.1,0.2-0.2,0.4-0.3,0.7c-0.1,0.2-0.1,0.5-0.2,0.7l0-0.2
		c0.5,2.6,1.4,5.2,2.5,7.6c0.6,1.2,1.2,2.4,1.9,3.5c0.7,1.1,1.5,2.2,2.4,3.1l-1-0.2c1.4-0.4,2.6-1.5,3.6-2.8c0.5-0.6,1-1.3,1.5-2
		c0.5-0.7,0.9-1.4,1.3-2.2C310.8,117.7,312.1,114.5,313.3,111.3z"/>
</g>
<path id="XMLID_102_" class="st5" d="M300.8,116.5"/>
<g id="XMLID_99_">
	<path class="st0" d="M300.8,126c1.3-1.1,2.6-2.3,3.8-3.6c0.6-0.7,1.2-1.3,1.7-2.1c0.5-0.7,1-1.5,1.2-2.3c-0.2,0.9-0.6,1.7-1,2.5
		c-0.4,0.8-0.9,1.5-1.5,2.2c-1.1,1.4-2.3,2.8-3.5,4.1c-0.2,0.2-0.5,0.2-0.7,0C300.5,126.6,300.5,126.3,300.8,126
		C300.8,126,300.8,126,300.8,126L300.8,126z"/>
</g>
<g id="XMLID_96_">
	<path class="st0" d="M298.1,119.8c0.5,0.1,1.2,0.1,1.8,0c0.6-0.1,1.3-0.4,1.8-0.7c0.6-0.3,1.1-0.7,1.6-1.2c0.3-0.2,0.5-0.5,0.7-0.7
		l0.7-0.8l-0.6,0.9c-0.2,0.3-0.4,0.5-0.7,0.8c-0.5,0.5-1,1-1.6,1.4c-0.6,0.4-1.2,0.7-1.9,1c-0.7,0.2-1.4,0.3-2.2,0.2L298.1,119.8z"
		/>
</g>
<g id="XMLID_10_">
	<path class="st0" d="M273.5,107.9c-1.1,2.1-2.4,4.1-4,5.9c-0.8,0.9-1.6,1.8-2.5,2.6c-0.9,0.8-1.8,1.6-2.8,2.3l0.2-0.1
		c-0.6,0.7-1.2,1.3-1.9,1.8c-0.4,0.3-0.7,0.6-1.2,0.8c-0.2,0.1-0.5,0.2-0.7,0.3c-0.3,0.1-0.6,0.2-1.2,0.1c-0.4-0.1-0.7-0.4-0.8-0.6
		c-0.1-0.2-0.2-0.4-0.2-0.6c-0.1-0.3-0.1-0.6-0.1-0.8c0-0.5,0-0.9,0.1-1.3c0.1-0.8,0.2-1.7,0.2-2.5l0,0.4c-0.3-1-0.7-2-1.2-2.9
		c-0.5-1-1-1.9-1.6-2.8c-0.6-0.9-1.2-1.7-1.9-2.5c-0.1-0.1-0.2-0.2-0.3-0.3c-0.1-0.1-0.2-0.2-0.3-0.4c-0.2-0.3-0.4-0.6-0.5-1
		c-0.1-0.4-0.1-1,0.2-1.3c0.3-0.3,0.6-0.5,0.9-0.6l0.4,0c-0.1,0-0.1,0-0.1,0c0,0,0,0,0,0l0.1,0l0.1,0l0.3,0l0.6-0.1l1.3-0.1l2.5-0.3
		c-0.8,0.3-1.6,0.6-2.4,0.8c-0.4,0.1-0.8,0.2-1.2,0.4l-0.6,0.2l-0.3,0.1l-0.2,0l-0.1,0l-0.1,0c0,0,0,0-0.2,0l0.4,0
		c-0.2,0.1-0.4,0.3-0.4,0.4c0,0.1,0,0.2,0,0.3c0.1,0.1,0.2,0.3,0.3,0.4c0.1,0.1,0.2,0.1,0.2,0.2c0.1,0.1,0.2,0.2,0.3,0.3
		c0.9,0.8,1.7,1.6,2.4,2.5c0.7,0.9,1.3,1.9,1.9,2.9c0.5,1,1,2,1.4,3.2l0.1,0.2l0,0.2c-0.1,0.9-0.1,1.7-0.2,2.5
		c0,0.4-0.1,0.8-0.1,1.2c0,0.2,0,0.3,0,0.4c0,0,0,0.1,0,0c0-0.1-0.2-0.2-0.3-0.2c-0.1,0,0,0,0.1,0c0.1,0,0.3-0.1,0.4-0.2
		c0.3-0.2,0.6-0.4,0.9-0.6c0.6-0.5,1.2-1,1.8-1.6l0.1-0.1l0.1,0c1.9-1.2,3.7-2.7,5.4-4.3C270.3,111.4,272,109.7,273.5,107.9z"/>
</g>
<g id="XMLID_90_">
	<polygon class="st0" points="255,107.4 259.1,107 255.7,109.3 	"/>
</g>
<path id="XMLID_89_" class="st4" d="M258.2,112.3"/>
<g id="XMLID_82_">
	<polygon class="st0" points="257.8,111.3 264.6,109.2 258.7,113.2 	"/>
</g>
<path id="XMLID_79_" class="st4" d="M259.1,115.8"/>
<g id="XMLID_76_">
	<polygon class="st0" points="258.8,115 267.6,110.7 259.8,116.7 	"/>
</g>
<g id="XMLID_73_">
	<path class="st0" d="M241.2,101.8c1.6-0.7,3.2-1.4,4.9-2c1.6-0.6,3.3-1.1,5-1.5c1.7-0.4,3.4-0.8,5.1-1c1.7-0.2,3.5-0.2,5.2,0.1
		c-1.7-0.1-3.4,0.1-5.1,0.4c-1.7,0.3-3.3,0.9-4.9,1.4c-1.6,0.6-3.2,1.3-4.7,2c-1.5,0.7-3.1,1.5-4.5,2.3L241.2,101.8z"/>
</g>
<g id="XMLID_69_">
	<path class="st0" d="M263.4,101.5l9.4,1.6c3.1,0.6,6.3,1.1,9.4,1.6c6.3,1,12.6,2.1,18.9,2.9c6.3,0.9,12.6,1.7,18.9,2.2
		c3.2,0.3,6.3,0.4,9.5,0.4c3.2,0,6.4-0.1,9.4-1c-3,1.1-6.2,1.4-9.4,1.5c-3.2,0.1-6.4,0-9.6-0.1c-6.4-0.3-12.7-1.1-19-2
		c-6.3-0.9-12.6-1.9-18.9-3.1C275.9,104.3,269.6,103,263.4,101.5z"/>
</g>
<g id="XMLID_6_">
	<path class="st0" d="M341,114c1.1-0.7,2.1-1.3,3.3-1.8c1.1-0.5,2.3-1,3.4-1.3c1.2-0.3,2.4-0.6,3.6-0.7c1.2-0.1,2.5,0,3.6,0.3
		c-2.4-0.4-4.8,0.2-7,1.1c-1.1,0.5-2.1,1-3.2,1.6c-1,0.6-2,1.3-2.9,2l0,0c-0.3,0.3-0.8,0.2-1.1-0.1S340.6,114.3,341,114
		C340.9,114,341,114,341,114z"/>
</g>
<g id="XMLID_3_">
	<path class="st0" d="M338.6,118.8c1.8-0.9,3.6-1.7,5.5-2.5c0.9-0.4,1.8-0.8,2.8-1.1c0.5-0.2,0.9-0.3,1.4-0.5c0.5-0.1,1-0.3,1.5-0.2
		c-0.5,0-1,0.2-1.4,0.4c-0.5,0.2-0.9,0.4-1.3,0.6c-0.9,0.4-1.7,0.9-2.6,1.4c-1.7,1-3.4,2-5.1,3.1l0,0c-0.3,0.2-0.8,0.1-1-0.2
		C338.1,119.5,338.2,119.1,338.6,118.8C338.6,118.8,338.6,118.8,338.6,118.8z"/>
</g>
<path id="XMLID_2_" class="st4" d="M238.6,99.9c0-0.1-0.1-0.1-0.1-0.2c0-0.3-0.2-0.5-0.4-0.6c0,0-0.4-0.1-0.5-0.1
	c-0.2-0.1-0.5-0.1-0.7,0c-0.1,0-0.7,0.2-0.8,0.3c-0.4,0.2-0.6,0.5-0.8,1c-0.2,0.2-0.2,0.6,0.1,0.8c0.6,0.3,1.3,0.7,2,0.5
	c0.2,0,0.5-0.1,0.6-0.3c0.2-0.2,0.3-0.4,0.3-0.7c0.1-0.2,0.1-0.2,0.1-0.4C238.5,100.3,238.7,100,238.6,99.9z"/>
<g id="XMLID_303_">
	<path class="st0" d="M376.5,83c0,0.7-0.1,1.2-0.4,1.7c-0.2,0.5-0.7,0.7-1,1c-0.3,0.4-0.6,0.7-0.9,1.1c-0.3,0.4-0.4,0.8-0.5,1.4
		l-0.2,0c-0.3-0.5-0.3-1.1-0.2-1.7c0.1-0.6,0.2-1.1,0.5-1.7c0.2-0.5,0.3-1.1,0.8-1.5c0.5-0.3,1-0.6,1.8-0.6L376.5,83z"/>
</g>
<path id="XMLID_113_" class="st4" d="M370.2,85.4c0,0,0-0.1-0.1-0.1c0-0.2-0.1-0.3-0.3-0.4c0,0-0.2-0.1-0.3-0.1c-0.1,0-0.3,0-0.4,0
	c-0.1,0-0.4,0.1-0.5,0.2c-0.3,0.1-0.4,0.3-0.5,0.6c-0.1,0.2-0.1,0.4,0,0.5c0.4,0.2,0.8,0.4,1.2,0.3c0.1,0,0.3-0.1,0.4-0.2
	c0.1-0.1,0.2-0.2,0.2-0.4c0.1-0.1,0.1-0.1,0.1-0.2C370.1,85.6,370.2,85.4,370.2,85.4z"/>
<g id="XMLID_160_">
	<path class="st0" d="M253.5,84.3c-1.9,1-3.9,1.7-6,2.3c-2.1,0.6-4.2,0.9-6.3,1.2c-2.1,0.3-4.3,0.5-6.4,0.6c-2.1,0-4.3-0.1-6.4-0.7
		l0-0.1c2.1,0.4,4.2,0.3,6.3,0.1c2.1-0.2,4.2-0.5,6.2-1c2.1-0.4,4.1-1,6.2-1.4c2.1-0.4,4.2-0.8,6.3-1L253.5,84.3z"/>
</g>
<path id="XMLID_4_" class="st4" d="M246.8,91.1c0,0,0-0.1-0.1-0.1c0-0.2-0.1-0.3-0.3-0.4c0,0-0.2-0.1-0.3-0.1c-0.1,0-0.3,0-0.4,0
	c-0.1,0-0.4,0.1-0.5,0.2c-0.3,0.1-0.4,0.3-0.5,0.6c-0.1,0.2-0.1,0.4,0,0.5c0.4,0.2,0.8,0.4,1.2,0.3c0.1,0,0.3-0.1,0.4-0.2
	c0.1-0.1,0.2-0.2,0.2-0.4c0.1-0.1,0.1-0.1,0.1-0.2C246.7,91.3,246.8,91.1,246.8,91.1z"/>
</svg>
