<?xml version="1.0" encoding="utf-8"?>
<!-- Generator: Adobe Illustrator 23.0.1, SVG Export Plug-In . SVG Version: 6.00 Build 0)  -->
<svg version="1.1" id="logo" xmlns="http://www.w3.org/2000/svg" xmlns:xlink="http://www.w3.org/1999/xlink" x="0px" y="0px"
	 viewBox="0 0 199.7 179.2" style="enable-background:new 0 0 199.7 179.2;" xml:space="preserve">
<style type="text/css">
	.st0{fill:#FFFFFF;}
	.st1{fill:#666565;stroke:#FFFFFF;stroke-miterlimit:10;}
	.st2{fill:none;stroke:#FFFFFF;stroke-width:4.4111;stroke-miterlimit:10;}
	.st3{fill:none;}
	.st4{fill:none;stroke:#FFFFFF;stroke-miterlimit:10;}
	.st5{fill:none;stroke:#FFFFFF;stroke-width:2;stroke-linecap:round;stroke-linejoin:round;stroke-miterlimit:10;}
	.st6{fill:none;stroke:#FFFFFF;stroke-width:2;stroke-miterlimit:10;}
	.st7{fill:#666665;stroke:#FFFFFF;stroke-miterlimit:10;}
	.st8{fill:none;stroke:#FFFFFF;stroke-width:2.1;stroke-miterlimit:10;}
	.st9{fill:none;stroke:#FFFFFF;stroke-width:2;stroke-linejoin:round;stroke-miterlimit:10;}
	.st10{fill:none;stroke:#FFFFFF;stroke-linejoin:round;stroke-miterlimit:10;}
</style>
<g id="XMLID_222_">
	<path class="st0" d="M79.5,71.4l-1.4-2.9h2.2l-2.2-4.7h2.2l-8.4-17.7l-8.5,17.7h2.2l-2.2,4.7h2.2l-1.3,2.7l0,0l3.7,1.7
		c1.8-0.3,1.9-0.3,3.8-0.6L79.5,71.4z"/>
	<polygon class="st0" points="71.9,72.3 71.9,46.1 80.4,63.8 78.2,63.8 80.4,68.5 78.2,68.5 79.5,71.4 	"/>
</g>
<g id="XMLID_217_">
	<path class="st0" d="M167.8,66.5h-3.3l1.6,3.3C163,69.3,161,69,161,69l-5.7-0.4l-2.1-0.2c0,0-3,0-8,0l0.9-2h-3.3l3.3-6.9h-3.3
		l12.5-26.2l12.5,26.2h-3.3L167.8,66.5z"/>
	<path class="st0" d="M167.8,66.5h-3.3l1.6,3.3C163,69.3,161,69,161,69l-5.7-0.4V33.4l12.5,26.2h-3.3L167.8,66.5z"/>
</g>
<g id="XMLID_212_">
	<path class="st0" d="M125.1,68.8l1.5-3.2h-1.9l1.9-4h-1.9l7.3-15.3l7.3,15.3h-1.9l1.9,4h-1.9l1.4,3c-2.1,0-4.4,0.1-6.8,0.1
		L125.1,68.8z"/>
	<path class="st0" d="M139.3,65.6h-1.9l1.4,3c-2.1,0-4.4,0.1-6.8,0.1V46.3l7.3,15.3h-1.9L139.3,65.6z"/>
</g>
<g id="XMLID_209_">
	<path class="st0" d="M57.9,66.2h-2.8l1.5,3c-0.8-0.1-1.5-0.2-2.4-0.2c0,0-1.7,0.4-3.4,2.9h-2.3v2.8c-0.5,0-0.9-0.1-1.3-0.1
		c-0.6-0.1-1.1-0.2-1.3-0.3l0,0v-2.4h-9.4l0.5-1.1l2.3-4.6h-2.8l2.8-5.7h-2.8l10.7-21.6l10.7,21.6h-2.8L57.9,66.2z"/>
	<path class="st0" d="M57.9,66.2h-2.8l1.5,3c-0.8-0.1-1.5-0.2-2.4-0.2c0,0-1.7,0.4-3.4,2.9h-2.3v2.8c-0.5,0-0.9-0.1-1.3-0.1V38.9
		l10.7,21.6h-2.8L57.9,66.2z"/>
</g>
<path id="XMLID_206_" class="st1" d="M68,80.5"/>
<path class="st2" d="M26.9,66.1c6-36.3,37.5-63.9,75.5-63.9c40.1,0,73.1,30.9,76.3,70.2"/>
<path class="st2" d="M28.4,98.4c8.7,32.7,38.5,56.8,73.9,56.8s65.1-24,73.9-56.6"/>
<g id="XMLID_134_">
	<path id="XMLID_135_" class="st0" d="M25.2,119.7l-0.9-1.9l-11.7,5.7l-0.9-1.8l11.7-5.7l-0.9-1.9l1.9-0.9l2.7,5.6L25.2,119.7z"/>
	<path id="XMLID_149_" class="st0" d="M30.8,124.9l-13.1,7.8l-1-1.7l6.1-3.7l-1.1-1.8l-6.1,3.7l-1-1.7l13.1-7.8l1,1.7l-5.1,3
		l1.1,1.8l5.1-3L30.8,124.9z"/>
	<path id="XMLID_153_" class="st0" d="M24.3,135.9l-1.2-1.6L20,136l-1.1-1.6l13.7-7l1.2,1.7l-11,10.8l-1.2-1.7L24.3,135.9z
		 M25.9,134.4l4.1-3.7l0,0l-4.8,2.7L25.9,134.4z"/>
	<path id="XMLID_156_" class="st0" d="M41.1,137.9l-11.4,10l-1.3-1.5l7-6.2l-7.9,5.2l-0.9-1.1l6.2-7.1l0,0l-7,6.2l-1.3-1.5l11.4-10
		l1.8,2.1l-6,7l0,0l7.7-5L41.1,137.9z"/>
	<path id="XMLID_180_" class="st0" d="M42,141.7l-2.6,2.7l1.5,1.4l-1.5,1.6l-1.5-1.4l-3.4,3.6l2.3,2.1l-1.5,1.6l-3.7-3.5l10.5-11
		l3.6,3.4l-1.5,1.6L42,141.7z"/>
	<path id="XMLID_182_" class="st0" d="M46.6,148.6l0.4-0.5c0.7-0.8,0.7-1.5,0.3-1.9c-0.4-0.3-1-0.2-1.5,0.3c-0.4,0.5-0.7,1-0.7,1.8
		l-0.4,3.7c-0.2,1.5-0.3,2.4-1.4,3.8c-1.4,1.7-3.2,1.8-4.5,0.7c-1.3-1-1.5-2.8-0.1-4.5l1-1.2l1.6,1.3l-0.9,1.1
		c-0.6,0.7-0.6,1.3-0.2,1.7c0.4,0.3,1,0.2,1.6-0.5c0.5-0.6,0.7-1.2,0.8-2l0.2-2.9c0.2-2,0.2-2.6,1.5-4.3c1.3-1.6,3.1-1.8,4.4-0.7
		c1.3,1.1,1.4,2.9,0.1,4.5l-0.7,0.8L46.6,148.6z"/>
	<path id="XMLID_199_" class="st0" d="M50,164.3l1.6-6.2c-0.2-0.1-0.5-0.3-0.6-0.3l-3.3,5.2l-1.7-1.1l8.1-12.8l2.9,1.8
		c1.6,1,1.4,3.2,0.1,5.2c-1.2,1.9-2.6,2.7-3.8,2.8l-1.7,6.6L50,164.3z M52.4,155.8l0.5,0.3c1.1,0.7,1.5,0.7,2.7-1.2
		c0.7-1,1-1.9,0.3-2.4l-1.1-0.7L52.4,155.8z"/>
	<path id="XMLID_203_" class="st0" d="M55.2,167.3l-1.8-1l7.3-13.3l1.8,1L55.2,167.3z"/>
	<path id="XMLID_218_" class="st0" d="M61.3,170.2l-2-0.9l4.1-14.8l2,0.9L62,166.2l0,0l6.1-9.6l2,0.9L61.3,170.2z"/>
	<path id="XMLID_227_" class="st0" d="M72.1,160.6l-1.3,3.5l1.9,0.7l-0.7,2l-1.9-0.7l-1.7,4.6l2.9,1.1l-0.7,2l-4.9-1.7l5.2-14.3
		l4.6,1.7l-0.7,2L72.1,160.6z"/>
	<path id="XMLID_229_" class="st0" d="M77,175.8l-0.2-6.4c-0.3-0.1-0.5-0.2-0.6-0.2l-1.6,5.9l-1.9-0.5l4-14.6l3.3,0.9
		c1.9,0.5,2.3,2.6,1.6,5c-0.6,2.2-1.7,3.4-2.8,3.8l0.3,6.8L77,175.8z M76.8,167l0.6,0.2c1.3,0.4,1.7,0.2,2.3-1.9
		c0.3-1.2,0.4-2.1-0.4-2.4l-1.3-0.3L76.8,167z"/>
	<path id="XMLID_232_" class="st0" d="M88.9,174.6l-1.9-0.3l-0.9,3.4l-1.9-0.3l4.5-14.7l2,0.3l0.1,15.4l-2-0.3L88.9,174.6z
		 M88.9,172.3l0.2-5.5l0,0l-1.4,5.3L88.9,172.3z"/>
	<path id="XMLID_235_" class="st0" d="M100.1,163.9l-1,15.2l-2-0.1l-1.4-8.8l0,0l-0.6,8.7l-2-0.1l1-15.2l2.1,0.1l1.3,8.5l0,0
		l0.6-8.4L100.1,163.9z"/>
	<path id="XMLID_237_" class="st0" d="M105.4,168.2V167c0-0.5-0.4-1.2-1-1.2c-0.7,0-1,0.8-1,1.3l0.2,8.8c0,0.5,0.3,1.2,1.1,1.2
		c0.8,0,1.1-0.7,1.1-2l-0.1-2.3h-1.1v-2.2l3-0.1l0.1,4.7c0,2.1-0.8,3.9-2.9,4c-2.3,0-3.1-1.8-3.1-3.3l-0.2-8.8c0-1.5,0.7-3.4,3-3.5
		c2.1,0,3,1.8,3.1,3.3v1.2L105.4,168.2z"/>
	<path id="XMLID_239_" class="st0" d="M114.6,176.1l0.2,2.2l-4.7,0.5l-1.5-15.1l2-0.2l1.3,13L114.6,176.1z"/>
	<path id="XMLID_241_" class="st0" d="M116.6,164.8l0.6,3.7l2-0.3l0.4,2.1l-2,0.3l0.8,4.9l3.1-0.5l0.4,2.1l-5.1,0.9l-2.5-15l4.8-0.8
		l0.4,2.1L116.6,164.8z"/>
	<path id="XMLID_243_" class="st0" d="M128.5,175.6l-3.4-5.5c-0.3,0.1-0.6,0.1-0.6,0.2l1.5,5.9l-2,0.5l-3.7-14.7l3.3-0.8
		c1.9-0.5,3.3,1.1,3.9,3.5c0.6,2.2,0.2,3.8-0.6,4.6l3.7,5.8L128.5,175.6z M123.9,168.1l0.6-0.2c1.3-0.3,1.6-0.6,1-2.8
		c-0.3-1.2-0.7-2-1.5-1.9l-1.3,0.3L123.9,168.1z"/>
	<path id="XMLID_246_" class="st0" d="M132.3,162.9l-0.2-0.6c-0.3-1-0.9-1.4-1.4-1.3c-0.5,0.2-0.7,0.8-0.5,1.4
		c0.2,0.6,0.5,1.1,1.1,1.6l2.9,2.3c1.2,0.9,1.9,1.5,2.5,3.2c0.7,2.1-0.2,3.7-1.7,4.2c-1.6,0.5-3.2-0.2-3.9-2.3l-0.5-1.5l1.9-0.7
		l0.5,1.3c0.3,0.9,0.8,1.2,1.3,1s0.7-0.8,0.4-1.6c-0.3-0.8-0.7-1.3-1.3-1.7l-2.4-1.6c-1.6-1.3-2.2-1.6-2.8-3.5
		c-0.7-1.9,0.1-3.6,1.7-4.2c1.6-0.6,3.2,0.3,3.9,2.2l0.3,1L132.3,162.9z"/>
	<path id="XMLID_248_" class="st0" d="M145.4,165.4l-1.8,0.9l1.2,3.4l-1.7,0.8l-4.5-14.7l1.8-0.9l8.7,12.6l-1.8,0.9L145.4,165.4z
		 M144.1,163.6l-2.9-4.6l0,0l1.8,5.2L144.1,163.6z"/>
	<path id="XMLID_251_" class="st0" d="M148.5,155.3l-0.3-0.5c-0.5-0.9-1.2-1.2-1.6-1c-0.4,0.3-0.5,0.9-0.2,1.5s0.7,0.9,1.4,1.3
		l3.3,1.6c1.3,0.7,2.2,1.1,3.1,2.7c1.1,1.9,0.5,3.6-0.9,4.5c-1.4,0.8-3.2,0.4-4.3-1.4l-0.8-1.4l1.8-1l0.7,1.2c0.5,0.8,1,1,1.5,0.7
		c0.4-0.3,0.5-0.9,0.1-1.7c-0.4-0.7-0.9-1.1-1.6-1.4l-2.6-1.1c-1.8-0.9-2.4-1.1-3.5-2.9c-1-1.8-0.7-3.5,0.8-4.4s3.2-0.3,4.3,1.4
		l0.5,0.9L148.5,155.3z"/>
	<path id="XMLID_253_" class="st0" d="M154.4,151.3l-0.4-0.5c-0.6-0.9-1.3-1.1-1.7-0.8c-0.4,0.3-0.5,0.9-0.1,1.5
		c0.4,0.5,0.7,0.9,1.5,1.2l3.5,1.4c1.4,0.5,2.3,0.9,3.3,2.4c1.3,1.8,0.8,3.6-0.5,4.5s-3.1,0.7-4.4-1.1l-0.9-1.3l1.7-1.2l0.8,1.2
		c0.5,0.8,1.1,0.9,1.5,0.6c0.4-0.3,0.5-0.9-0.1-1.7c-0.5-0.7-1-1-1.7-1.3l-2.7-0.9c-1.9-0.8-2.5-0.9-3.7-2.6
		c-1.2-1.7-0.9-3.5,0.5-4.5s3.2-0.6,4.4,1.1l0.6,0.9L154.4,151.3z"/>
	<path id="XMLID_255_" class="st0" d="M161.2,144.6l5.6,6.7c1,1.2,1.5,3.2-0.1,4.5c-1.7,1.4-3.5,0.5-4.5-0.7l-5.6-6.7
		c-1-1.2-1.6-3.1,0.2-4.5C158.3,142.6,160.2,143.4,161.2,144.6z M159.6,146c-0.3-0.3-1.1-0.8-1.5-0.4c-0.5,0.5-0.2,1.3,0,1.6
		l5.6,6.7c0.3,0.4,1.1,0.8,1.6,0.4c0.4-0.4,0.2-1.2-0.1-1.6L159.6,146z"/>
	<path id="XMLID_259_" class="st0" d="M165.9,141.8l-0.8-0.9c-0.3-0.3-1.1-0.6-1.5-0.2c-0.5,0.5-0.2,1.3,0.1,1.6l6.2,6.2
		c0.3,0.3,1.1,0.7,1.6,0.2c0.4-0.4,0.1-1.2-0.2-1.5l-0.8-0.9l1.5-1.4l0.8,0.9c1.1,1.1,1.7,3.1,0.3,4.5c-1.6,1.6-3.5,0.8-4.6-0.2
		l-6.2-6.3c-1.1-1.1-1.8-3-0.2-4.6c1.5-1.4,3.4-0.8,4.5,0.3l0.8,0.9L165.9,141.8z"/>
	<path id="XMLID_261_" class="st0" d="M177.7,144.9l-1.4,1.5L165,136.3l1.4-1.5L177.7,144.9z"/>
	<path id="XMLID_263_" class="st0" d="M179,137.8l-1.2,1.5l2.5,2.5l-1.2,1.5l-10.5-11.2l1.3-1.6l13.4,7.6l-1.3,1.6L179,137.8z
		 M177.1,136.7l-4.7-2.9l0,0l3.9,3.9L177.1,136.7z"/>
	<path id="XMLID_266_" class="st0" d="M176.1,125.5l-1.2,1.7l10.7,7.4l-1.2,1.7l-10.7-7.4l-1.2,1.7l-1.8-1.2l3.5-5.1L176.1,125.5z"
		/>
	<path id="XMLID_268_" class="st0" d="M188.9,129.4l-1,1.7l-13-7.8l1-1.7L188.9,129.4z"/>
	<path id="XMLID_270_" class="st0" d="M182.2,116.6l7.8,4c1.4,0.7,2.6,2.4,1.7,4.2c-1,2-3.1,1.8-4.4,1.1l-7.8-4
		c-1.4-0.7-2.6-2.3-1.6-4.3C178.8,115.8,180.8,115.9,182.2,116.6z M181.3,118.4c-0.4-0.2-1.3-0.3-1.6,0.2c-0.3,0.6,0.3,1.3,0.6,1.5
		l7.8,4c0.4,0.2,1.3,0.3,1.6-0.3c0.3-0.5-0.3-1.2-0.7-1.4L181.3,118.4z"/>
	<path id="XMLID_273_" class="st0" d="M182.2,108.4l14,5.8l-0.8,1.9l-8.8-1.5l0,0l8,3.3l-0.8,1.9l-14-5.8l0.8-2l8.5,1.5l0,0
		l-7.8-3.2L182.2,108.4z"/>
</g>
<g id="XMLID_56_">
	<g>
		<path id="XMLID_504_" class="st0" d="M72.9,133.9h-1.5l-0.3,2.1h-1.5l1.8-8.8H73l1.8,8.8h-1.6L72.9,133.9z M72.6,132.6l-0.5-3.2
			l0,0l-0.5,3.2H72.6z"/>
		<path id="XMLID_502_" class="st0" d="M81.2,127.1v8.8h-1.6l-1.6-5.1l0,0v5.1h-1.6v-8.8h1.7l1.5,4.9l0,0v-4.9H81.2z"/>
		<path id="XMLID_500_" class="st0" d="M86.2,129.7V129c0-0.3-0.3-0.7-0.7-0.7c-0.6,0-0.8,0.5-0.8,0.7v5.1c0,0.3,0.2,0.7,0.8,0.7
			c0.6,0,0.9-0.4,0.9-1.1v-1.3h-0.9v-1.3h2.3v2.7c0,1.2-0.7,2.3-2.3,2.3c-1.8,0-2.4-1.1-2.4-2V129c0-0.9,0.6-2,2.4-2
			c1.6,0,2.3,1.1,2.3,2v0.7L86.2,129.7L86.2,129.7z"/>
		<path id="XMLID_498_" class="st0" d="M93.2,134.7v1.3h-3.6v-8.9h1.6v7.6H93.2z"/>
		<path id="XMLID_496_" class="st0" d="M96.5,128.4v2.2h1.6v1.3h-1.6v2.9h2.4v1.3h-4v-9h3.8v1.3H96.5z"/>
		<path id="XMLID_493_" class="st0" d="M104.2,135.9l-1.5-3.6c-0.2,0-0.4,0-0.5,0v3.6h-1.5v-8.8h2.6c1.5,0,2.2,1.1,2.2,2.5
			c0,1.3-0.6,2.2-1.3,2.5l1.7,3.8H104.2z M102.2,131h0.5c1,0,1.3-0.1,1.3-1.4c0-0.7-0.2-1.3-0.8-1.3h-1V131z"/>
		<path id="XMLID_491_" class="st0" d="M110.3,129.6v-0.4c0-0.6-0.3-1-0.7-1c-0.4,0-0.7,0.3-0.7,0.7s0.1,0.7,0.4,1.1l1.6,1.8
			c0.6,0.7,1,1.2,1,2.2c0,1.3-1.1,2-2.3,2c-1.3,0-2.3-0.7-2.3-2v-0.9h1.6v0.8c0,0.5,0.3,0.8,0.7,0.8c0.4,0,0.7-0.3,0.7-0.8
			s-0.2-0.8-0.5-1.2l-1.3-1.3c-0.8-1-1.2-1.3-1.2-2.5c0-1.2,1-2,2.3-2s2.3,0.8,2.3,2v0.6L110.3,129.6L110.3,129.6z"/>
		<path id="XMLID_489_" class="st0" d="M113.7,134.4h1.6v1.6h-1.6V134.4z"/>
		<path id="XMLID_486_" class="st0" d="M121.7,129v5.1c0,0.9-0.7,2-2.3,2c-1.7,0-2.4-1.1-2.4-2V129c0-0.9,0.6-2,2.4-2
			C121,127,121.7,128.1,121.7,129z M120.1,129c0-0.3-0.3-0.7-0.7-0.7c-0.6,0-0.8,0.5-0.8,0.7v5.1c0,0.3,0.2,0.8,0.8,0.8
			c0.5,0,0.7-0.5,0.7-0.8V129z"/>
		<path id="XMLID_483_" class="st0" d="M127.1,135.9l-1.5-3.6c-0.2,0-0.4,0-0.5,0v3.6h-1.6v-8.8h2.6c1.5,0,2.2,1.1,2.2,2.5
			c0,1.3-0.6,2.2-1.3,2.5l1.7,3.8H127.1z M125.1,131h0.5c1,0,1.3-0.1,1.3-1.4c0-0.7-0.2-1.3-0.8-1.3h-1V131z"/>
		<path id="XMLID_481_" class="st0" d="M133.3,129.7V129c0-0.3-0.3-0.7-0.7-0.7c-0.6,0-0.8,0.5-0.8,0.7v5.1c0,0.3,0.2,0.7,0.8,0.7
			c0.6,0,0.9-0.4,0.9-1.1v-1.3h-0.9v-1.3h2.3v2.7c0,1.2-0.7,2.3-2.3,2.3c-1.8,0-2.4-1.1-2.4-2V129c0-0.9,0.6-2,2.4-2
			c1.6,0,2.3,1.1,2.3,2v0.7L133.3,129.7L133.3,129.7z"/>
	</g>
</g>
<g id="XMLID_1_">
	<g>
		<path id="XMLID_435_" class="st0" d="M78.4,31.2v2.4h1.8V35h-1.8v3.2h2.7v1.4h-4.4v-9.8h4.2v1.4C80.9,31.2,78.4,31.2,78.4,31.2z"
			/>
		<path id="XMLID_433_" class="st0" d="M86.2,32.6v-0.4c0-0.7-0.4-1.1-0.8-1.1s-0.8,0.3-0.8,0.8c0,0.4,0.1,0.7,0.5,1.2l1.8,2
			c0.7,0.8,1.1,1.3,1.1,2.5c0,1.4-1.2,2.2-2.6,2.2s-2.5-0.8-2.5-2.2v-1h1.8v0.9c0,0.6,0.3,0.9,0.8,0.9c0.4,0,0.8-0.3,0.8-0.9
			c0-0.5-0.2-0.9-0.6-1.3l-1.5-1.5c-0.9-1.1-1.3-1.4-1.3-2.7c0-1.3,1.1-2.2,2.6-2.2S88,30.7,88,32v0.7h-1.8V32.6z"/>
		<path id="XMLID_431_" class="st0" d="M95.2,31.2h-1.8v8.4h-1.8v-8.4h-1.8v-1.4h5.4L95.2,31.2L95.2,31.2z"/>
		<path id="XMLID_429_" class="st0" d="M96.2,37.9H98v1.8h-1.8V37.9z"/>
		<path id="XMLID_427_" class="st0" d="M103.9,29.8h1.8v9.8h-1.8v-8.4h-0.8v-1L103.9,29.8z"/>
		<path id="XMLID_424_" class="st0" d="M107.7,33.6c0-0.1,0-1.2,0-1.4c0-1.5,1-2.6,2.8-2.6s2.6,1.2,2.6,2.2c0,0,0,4.7,0,4.9
			c0,1.6-1.1,2.9-2.7,2.9c-1.7,0-2.4-1.2-2.4-2.2v-0.8h1.7v0.8c0,0.4,0.3,0.8,0.8,0.8c0.7,0,0.9-0.7,0.9-1.5v-1.6
			c-0.2,0.3-0.6,0.5-1.2,0.5C108.5,35.8,107.7,34.8,107.7,33.6z M109.5,33.6c0,0.5,0.4,0.8,0.9,0.8c0.6,0,0.9-0.3,0.9-0.5v-2
			c0-0.3-0.3-0.8-0.8-0.8c-0.7,0-1,0.4-1,1.2C109.5,32.4,109.5,33.5,109.5,33.6z"/>
		<path id="XMLID_420_" class="st0" d="M120.7,36.8c0,1.6-1.1,2.9-2.8,2.9c-1.7,0-2.9-1.3-2.9-2.9c0-1.4,0.7-2.1,1.6-2.5
			c-0.6-0.3-1.3-1.2-1.3-2.2c0-1.5,0.9-2.5,2.5-2.5s2.5,0.9,2.5,2.5c0,1-0.6,1.9-1.3,2.2C120,34.7,120.7,35.5,120.7,36.8z
			 M118.9,36.8c0-0.9-0.2-1.6-1-1.8c-0.8,0.2-1.1,0.8-1.1,1.8s0.4,1.5,1.2,1.5C118.7,38.4,118.9,37.5,118.9,36.8z M117,32.3
			c0,0.5,0.2,1,0.9,1.2c0.6-0.2,0.8-0.7,0.8-1.2c0-0.7-0.3-1.2-0.8-1.2S117,31.6,117,32.3z"/>
		<path id="XMLID_417_" class="st0" d="M128,35.8c0,0.1,0,1.2,0,1.4c0,1.5-1,2.6-2.8,2.6s-2.6-1.2-2.6-2.2c0,0,0-4.7,0-4.9
			c0-1.6,1-2.9,2.6-2.9c1.7,0,2.5,1.2,2.5,2.2v0.7H126V32c0-0.4-0.3-0.8-0.8-0.8c-0.7,0-0.9,0.8-0.9,1.5v1.5
			c0.2-0.3,0.6-0.5,1.2-0.5C127.3,33.6,128,34.7,128,35.8z M126.3,35.8c0-0.5-0.4-0.8-0.9-0.8s-0.9,0.3-0.9,0.5v2
			c0,0.3,0.3,0.8,0.8,0.8c0.7,0,1-0.4,1-1.2C126.2,37.1,126.3,35.9,126.3,35.8z"/>
	</g>
</g>
<g id="XMLID_194_">
	<path class="st0" d="M102.5,10.2c-2.2,0-3.9,1.8-3.9,3.9c0,2.2,1.8,3.9,3.9,3.9c2.2,0,3.9-1.7,3.9-3.9
		C106.4,11.9,104.6,10.2,102.5,10.2z M100.4,11.5c0.3-0.3,0.7-0.3,0.9-0.1c0.2,0.2,0,0.6-0.3,0.9s-0.7,0.3-0.9,0.1
		S100.1,11.7,100.4,11.5z M102.5,16.5c-1.1,0-2-0.5-2-1c0-0.6,0.9-1,2-1s2,0.5,2,1C104.4,16,103.6,16.5,102.5,16.5z"/>
</g>
<g id="XMLID_191_">
	<path class="st0" d="M80.3,15.4c-2.2,0-3.9,1.8-3.9,3.9s1.8,3.9,3.9,3.9c2.2,0,3.9-1.8,3.9-3.9C84.2,17.1,82.5,15.4,80.3,15.4z
		 M78.2,16.7c0.3-0.3,0.7-0.3,0.9-0.1c0.2,0.2,0,0.6-0.3,0.9s-0.7,0.3-0.9,0.1C77.8,17.3,77.9,16.9,78.2,16.7z M80.3,21.6
		c-1.1,0-2-0.5-2-1c0-0.6,0.9-1,2-1s2,0.5,2,1S81.4,21.6,80.3,21.6z"/>
</g>
<g id="XMLID_188_">
	<path class="st0" d="M123.9,15.4c-2.2,0-3.9,1.8-3.9,3.9s1.8,3.9,3.9,3.9c2.2,0,3.9-1.8,3.9-3.9C127.8,17.1,126,15.4,123.9,15.4z
		 M121.8,16.7c0.3-0.3,0.7-0.3,0.9-0.1c0.2,0.2,0,0.6-0.3,0.9s-0.7,0.3-0.9,0.1C121.4,17.3,121.5,16.9,121.8,16.7z M123.9,21.6
		c-1.1,0-2-0.5-2-1c0-0.6,0.9-1,2-1s2,0.5,2,1C125.8,21.1,125,21.6,123.9,21.6z"/>
</g>
<polygon id="XMLID_196_" class="st3" points="93.6,129.6 101.3,129.6 101.3,129.6 "/>
<g id="XMLID_294_">
	<path class="st3" d="M36.5,95"/>
</g>
<g id="XMLID_114_">
	<path class="st3" d="M36.5,69.6"/>
</g>
<g id="XMLID_173_">
	<polygon class="st0" points="5.7,64.5 27.1,72.7 5.1,66.4 	"/>
</g>
<g id="XMLID_170_">
	<polygon class="st0" points="10,74.6 21.5,77 9.8,76.6 	"/>
</g>
<g id="XMLID_167_">
	<polygon class="st0" points="11.2,85.2 21.5,83.9 11.6,87.1 	"/>
</g>
<g id="XMLID_164_">
	<polygon class="st0" points="8,90.8 25.1,88 8.4,92.8 	"/>
</g>
<g id="XMLID_161_">
	<polygon class="st0" points="4,97.1 26.1,90.7 4.6,99 	"/>
</g>
<g id="XMLID_158_">
	<polygon class="st0" points="1,102.7 25.9,95 1.6,104.6 	"/>
</g>
<path id="XMLID_157_" class="st4" d="M183.6,78.9c0-0.4-0.2-0.8-0.6-0.8c-0.1,0-0.5-0.2-0.7-0.2c-0.3-0.1-0.7-0.1-1,0
	c-0.2,0-1,0.3-1.1,0.4c-0.6,0.3-0.6,0.4-1,1c-0.2,0.4-0.1,1.2,0.3,1.4c0.9,0.4,1.4,1.1,2.4,0.9c0.3,0,0.7-0.1,0.9-0.4
	c0.3-0.3,0.4-0.6,0.5-0.9s0.1-0.3,0.2-0.6"/>
<path id="XMLID_22_" class="st5" d="M40.9,91.8c0,0,4.6-6.3,44.9,9.8c0,0-0.8-0.1,11.1,3.3"/>
<path id="XMLID_9_" class="st6" d="M112.1,106.6c5.6,0.2,16.6,0.6,24.3,0.5c0,0,1.6,0,4.2-0.1"/>
<g id="XMLID_20_">
	<path class="st0" d="M156,96.2c-1.4-0.1-2.9,0.1-4.2,0.3c-1.4,0.3-2.7,0.8-4,1.4c-1.2,0.6-2.3,1.5-3.3,2.5s-1.6,2.2-2.2,3.5v-0.1
		c-0.2,0.9-0.5,1.7-0.8,2.5s-0.7,1.6-1.1,2.3c-0.9,1.5-2.1,2.9-3.8,3.8l-0.6-1.5c2.8-0.9,5.6-1.9,8.4-2.9c1.4-0.5,2.8-1,4.1-1.6
		c1.4-0.5,2.7-1.1,3.9-1.8l-0.1,0.1c1.1-1.1,2.2-2.2,3.3-3.2c0.6-0.5,1.1-1,1.7-1.5s1.2-1,1.9-1.4h0.1v0.1c-1.1,1.1-2,2.3-2.9,3.5
		l-2.8,3.5l-0.1,0.1h-0.1c-1.3,1-2.7,1.6-4.1,2.3c-1.4,0.6-2.8,1.2-4.2,1.7c-1.4,0.5-2.9,0.9-4.3,1.3s-2.9,0.8-4.3,1.2l0,0
		c-0.4,0.1-0.9-0.2-1-0.6s0.1-0.8,0.4-0.9c0.7-0.3,1.3-0.7,1.8-1.2s1-1.1,1.5-1.8c0.4-0.7,0.8-1.4,1.1-2.1c0.3-0.7,0.6-1.5,0.8-2.2
		v-0.1l0,0c0.7-1.3,1.5-2.6,2.6-3.7s2.3-1.9,3.6-2.5c1.3-0.6,2.8-1,4.2-1.2c1.4-0.2,2.9-0.3,4.3-0.1c0.1,0,0.1,0.1,0.1,0.1
		C156.1,96.2,156.1,96.2,156,96.2L156,96.2z"/>
</g>
<g id="XMLID_18_">
	<path class="st0" d="M114.6,70c-0.7-0.3-1.4-0.5-2.2-0.7c-0.4-0.1-0.7-0.2-1.1-0.3c-0.4-0.1-0.7-0.1-1-0.1h-0.1l-0.1-0.1
		c-2.4-1.9-4.7-3.9-7-5.9c-1.2-1-2.3-2-3.5-2.9c-1.1-0.9-2.4-2-3.5-2.7l1.3-0.4c-0.7,1.1-1.4,2.2-2.1,3.3c-0.7,1.1-1.5,2.1-2.3,3.2
		c-0.8,1-1.6,2.1-2.5,3c-0.5,0.5-0.9,1-1.5,1.4c-0.5,0.4-1.1,0.9-1.9,1.1l0.3-0.2c0.1-0.1,0.1-0.2,0-0.3c0-0.1,0,0,0,0
		c0.1,0.1,0.3,0.2,0.6,0.3c0.5,0.2,1,0.2,1.6,0.3l0,0c0.6,0,1.2,0.1,1.9,0.2c0.3,0,0.6,0.1,0.9,0.2c0.2,0,0.3,0.1,0.5,0.1
		c0.2,0.1,0.3,0.1,0.5,0.3l-0.1-0.1c0.3,0.1,0.5,0.3,0.7,0.5s0.4,0.5,0.3,0.8c0-0.3-0.2-0.5-0.4-0.6c-0.2-0.1-0.5-0.2-0.7-0.3L93,70
		c0,0-0.2-0.1-0.3-0.1c-0.1,0-0.3,0-0.4,0c-0.3,0-0.6,0-0.9,0c-0.6,0-1.2,0-1.8,0.1l0,0c-0.6,0-1.2-0.1-1.8-0.2
		c-0.3-0.1-0.6-0.1-1-0.3c-0.2-0.1-0.4-0.3-0.5-0.6c-0.1-0.3-0.1-0.8,0.1-1.1l0.1-0.1l0.2-0.1c0.4-0.2,0.9-0.5,1.3-1
		c0.4-0.4,0.8-0.9,1.2-1.4c0.8-1,1.6-2,2.3-3c0.7-1,1.5-2.1,2.2-3.2s1.4-2.2,2.1-3.2l0.5-0.9l0.8,0.5c1.5,0.9,2.5,1.9,3.7,2.9
		c1.1,1,2.3,2.1,3.4,3.1c2.2,2.1,4.4,4.3,6.4,6.5l-0.3-0.1c0.4,0,0.8,0.2,1.2,0.3c0.4,0.1,0.7,0.3,1.1,0.5
		C113.3,69.1,114,69.5,114.6,70z"/>
</g>
<g id="XMLID_146_">
	<path class="st0" d="M109.2,70L97.3,59.3l12.5,9.9c0.2,0.2,0.3,0.5,0.1,0.7C109.7,70.2,109.4,70.2,109.2,70L109.2,70z"/>
</g>
<g id="XMLID_143_">
	<path class="st0" d="M104.4,70l-7.9-7.7l8.5,6.9c0.2,0.2,0.2,0.5,0.1,0.7C104.9,70.1,104.6,70.2,104.4,70L104.4,70z"/>
</g>
<g id="XMLID_140_">
	<path class="st0" d="M100.1,69.6l-4.9-4.7l5.5,3.9c0.2,0.2,0.3,0.5,0.1,0.7C100.7,69.7,100.4,69.8,100.1,69.6L100.1,69.6z"/>
</g>
<g id="XMLID_137_">
	<path class="st0" d="M96.4,70.2l-3.9-3.7l4.5,2.9c0.2,0.1,0.3,0.5,0.2,0.7S96.7,70.4,96.4,70.2C96.5,70.2,96.4,70.2,96.4,70.2z"/>
</g>
<g>
	<path class="st0" d="M51.2,74.6c-0.3-0.1-0.6-0.2-0.9-0.4c-0.1-0.1-0.3-0.2-0.4-0.4c-0.1-0.2-0.2-0.3-0.3-0.6l0,0v-0.1
		c0.4-1,0.7-2,1.4-2.9c0.3-0.4,0.7-0.9,1.2-1.3c0.2-0.2,0.5-0.4,0.7-0.5c0.3-0.2,0.5-0.3,0.9-0.4h0.1H54c1.1,0.1,2.3,0.1,3.4,0.3
		c1.1,0.2,2.3,0.5,3.4,0.8c1.1,0.4,2.2,0.8,3.2,1.3c1,0.5,2,1.2,2.8,2c-1.1-0.3-2.2-0.6-3.2-0.9c-1.1-0.3-2.1-0.5-3.2-0.7
		s-2.1-0.4-3.2-0.6S55,70,54,69.8h0.2c-0.1,0-0.3,0.1-0.5,0.2s-0.4,0.2-0.6,0.3c-0.4,0.2-0.7,0.5-1.1,0.8c-0.3,0.3-0.7,0.7-1,1.1
		S50.3,73,50,73.4v-0.2c0,0,0,0.2,0,0.3c0,0.1,0.1,0.2,0.2,0.4C50.8,74.2,50.9,74.4,51.2,74.6z"/>
</g>
<path id="XMLID_133_" class="st4" d="M150.5,75.3c0-0.1-0.1-0.1-0.1-0.2c0-0.3-0.2-0.5-0.4-0.6c0,0-0.4-0.1-0.5-0.1
	c-0.2-0.1-0.5-0.1-0.7,0c-0.1,0-0.7,0.2-0.8,0.3c-0.4,0.2-0.6,0.5-0.8,1c-0.2,0.2-0.2,0.6,0.1,0.8c0.6,0.3,1.3,0.7,2,0.5
	c0.2,0,0.5-0.1,0.6-0.3c0.2-0.2,0.3-0.4,0.3-0.7c0.1-0.2,0.1-0.2,0.1-0.4C150.4,75.7,150.6,75.4,150.5,75.3z"/>
<path id="XMLID_132_" class="st4" d="M136.1,75.4c0,0,0-0.1-0.1-0.1c0-0.2-0.1-0.3-0.3-0.4c0,0-0.2-0.1-0.3-0.1c-0.1,0-0.3,0-0.4,0
	s-0.4,0.1-0.5,0.2c-0.3,0.1-0.4,0.3-0.5,0.6c-0.1,0.2-0.1,0.4,0,0.5c0.4,0.2,0.8,0.4,1.2,0.3c0.1,0,0.3-0.1,0.4-0.2s0.2-0.2,0.2-0.4
	c0.1-0.1,0.1-0.1,0.1-0.2C136.1,75.6,136.2,75.5,136.1,75.4z"/>
<path id="XMLID_131_" class="st4" d="M61.9,72.1c0,0,0-0.1-0.1-0.1c0-0.2-0.1-0.3-0.3-0.4c0,0-0.2-0.1-0.3-0.1c-0.1,0-0.3,0-0.4,0
	s-0.4,0.1-0.5,0.2c-0.3,0.1-0.4,0.3-0.5,0.6c-0.1,0.2-0.1,0.4,0,0.5c0.4,0.2,0.8,0.4,1.2,0.3c0.1,0,0.3-0.1,0.4-0.2s0.2-0.2,0.2-0.4
	c0.1-0.1,0.1-0.1,0.1-0.2C61.8,72.3,61.9,72.1,61.9,72.1z"/>
<path id="XMLID_130_" class="st7" d="M54,73.1L54,73.1c-0.1-0.2-0.1-0.3-0.2-0.3c0,0-0.1,0-0.2-0.1c-0.1,0-0.2,0-0.3,0
	S53,72.8,53,72.8c-0.2,0.1-0.2,0.2-0.3,0.4c-0.1,0.1-0.1,0.2,0,0.3c0.2,0.1,0.5,0.3,0.8,0.2c0.1,0,0.2,0,0.2-0.1
	c0.1-0.1,0.1-0.2,0.1-0.3C53.8,73.2,53.8,73.2,54,73.1C54,73.3,54.1,73.1,54,73.1z"/>
<path id="XMLID_129_" class="st7" d="M57,71.1L57,71.1c0-0.1-0.1-0.2-0.2-0.2h-0.1c-0.1,0-0.1,0-0.2,0L56.3,71
	c-0.1,0.1-0.2,0.2-0.2,0.3c0,0.1-0.1,0.2,0,0.2c0.2,0.1,0.4,0.2,0.6,0.2c0.1,0,0.1,0,0.2-0.1s0.1-0.1,0.1-0.2
	C56.9,71.3,56.9,71.3,57,71.1C57,71.2,57,71.1,57,71.1z"/>
<path class="st8" d="M153,105.3c5.1-1.1,10.8-3.9,16.8-5.4l7.3-1.6c7-2,12.5-4.8,12.5-4.8c8.1-5.8,7.7-6.3,7.7-6.3l-5.3,0.4
	c-1.4,0.4-7.5,1-7.5,1c4.3-4,11.5-7.8,11.5-7.8c-3.4-6.1-21.1-9.7-29.9-11.2c-3.1-0.5-5.1-0.8-5.1-0.8l-5.6-0.4l-2.1-0.2
	c0,0-3,0-8,0l0,0c-1.9,0-4,0-6.3,0.1c-2.1,0-4.4,0.1-6.8,0.1c-1.1,0-2.2,0-3.4,0.1c-1.1,0-2.3,0.1-3.5,0.1
	c-14.2,0.3-31.4,1.1-45.6,2.6c-2.6,0.3-5.2,0.6-7.6,0.9c-2,0.3-3.8,0.6-5.6,0.9c-2.7,0.5-5.2,1-7.2,1.6c0,0-6.6,0.2-10.6-0.1
	c-0.5,0-0.9-0.1-1.3-0.1c-0.6-0.1-1.1-0.2-1.3-0.3l0,0l-5.1-2c0,0-0.4-0.2-1.1-0.4c-0.7-0.3-1.6-0.7-2.6-1.1
	c-2.1-0.9-4.8-2.1-6.7-3.2c0,0-22.2-10.3-27.9-10.1c0,0-1.3,0.1,9.2,21.7c0,0,2.8,3.8-1.9,9.6c0,0-8.9,14.2-8.9,19.2
	c0,0,9.2,2.2,32.8-12.6c0,0,11.7-5,13.2-4.7"/>
<path id="XMLID_127_" class="st9" d="M189.9,86.5"/>
<path id="XMLID_126_" class="st4" d="M140.8,80.9c0,0,0-0.1-0.1-0.1c0-0.2-0.1-0.3-0.3-0.4c0,0-0.2-0.1-0.3-0.1c-0.1,0-0.3,0-0.4,0
	s-0.4,0.1-0.5,0.2c-0.3,0.1-0.4,0.3-0.5,0.6c-0.1,0.2-0.1,0.4,0,0.5c0.4,0.2,0.8,0.4,1.2,0.3c0.1,0,0.3-0.1,0.4-0.2s0.2-0.2,0.2-0.4
	c0.1-0.1,0.1-0.1,0.1-0.2C140.7,81.2,140.8,81,140.8,80.9z"/>
<path id="XMLID_125_" class="st4" d="M106.8,76.7c0,0,0-0.1-0.1-0.1c0-0.2-0.1-0.3-0.3-0.4c0,0-0.2-0.1-0.3-0.1c-0.1,0-0.3,0-0.4,0
	s-0.4,0.1-0.5,0.2c-0.3,0.1-0.4,0.3-0.5,0.6c-0.1,0.2-0.1,0.4,0,0.5c0.4,0.2,0.8,0.4,1.2,0.3c0.1,0,0.3-0.1,0.4-0.2s0.2-0.2,0.2-0.4
	c0.1-0.1,0.1-0.1,0.1-0.2C106.8,77,106.8,76.8,106.8,76.7z"/>
<path id="XMLID_124_" class="st4" d="M71.9,78.7c0-0.1-0.1-0.1-0.1-0.2c0-0.3-0.2-0.5-0.4-0.6c0,0-0.4-0.1-0.5-0.1
	c-0.2-0.1-0.5-0.1-0.7,0c-0.1,0-0.7,0.2-0.8,0.3c-0.4,0.2-0.6,0.5-0.8,1c-0.2,0.2-0.2,0.6,0.1,0.8c0.6,0.3,1.3,0.7,2,0.5
	c0.2,0,0.5-0.1,0.6-0.3c0.2-0.2,0.3-0.4,0.3-0.7c0.1-0.2,0.1-0.2,0.1-0.4C71.8,79.1,72,78.8,71.9,78.7z"/>
<path id="XMLID_123_" class="st4" d="M75.4,87.6c0-0.1-0.1-0.1-0.1-0.2c0-0.3-0.2-0.5-0.4-0.6c0,0-0.4-0.1-0.5-0.1
	c-0.2-0.1-0.5-0.1-0.7,0c-0.1,0-0.7,0.2-0.8,0.3c-0.4,0.2-0.6,0.5-0.8,1c-0.2,0.2-0.2,0.6,0.1,0.8c0.6,0.3,1.3,0.7,2,0.5
	c0.2,0,0.5-0.1,0.6-0.3c0.2-0.2,0.3-0.4,0.3-0.7c0.1-0.2,0.1-0.2,0.1-0.4C75.3,88,75.5,87.7,75.4,87.6z"/>
<path id="XMLID_122_" class="st4" d="M82.7,80.9c0,0,0-0.1-0.1-0.1c0-0.2-0.1-0.3-0.3-0.4c0,0-0.2-0.1-0.3-0.1c-0.1,0-0.3,0-0.4,0
	s-0.4,0.1-0.5,0.2c-0.3,0.1-0.4,0.3-0.5,0.6c-0.1,0.2-0.1,0.4,0,0.5c0.4,0.2,0.8,0.4,1.2,0.3c0.1,0,0.3-0.1,0.4-0.2s0.2-0.2,0.2-0.4
	c0.1-0.1,0.1-0.1,0.1-0.2C82.6,81.2,82.7,81,82.7,80.9z"/>
<path id="XMLID_121_" class="st4" d="M96.4,74.7C96.4,74.6,96.4,74.6,96.4,74.7c-0.1-0.2-0.1-0.3-0.2-0.3c0,0-0.2,0-0.2-0.1
	c-0.1,0-0.2,0-0.3,0c-0.1,0-0.3,0.1-0.3,0.1c-0.2,0.1-0.3,0.2-0.4,0.4c-0.1,0.1-0.1,0.3,0,0.3c0.3,0.1,0.6,0.3,0.9,0.2
	c0.1,0,0.2,0,0.3-0.1c0.1-0.1,0.1-0.2,0.1-0.3C96.3,74.8,96.3,74.8,96.4,74.7C96.3,74.8,96.4,74.7,96.4,74.7z"/>
<path id="XMLID_120_" class="st4" d="M117.9,80.2C117.9,80.1,117.9,80.1,117.9,80.2c-0.1-0.2-0.1-0.3-0.2-0.3c0,0-0.2,0-0.2-0.1
	c-0.1,0-0.2,0-0.3,0c-0.1,0-0.3,0.1-0.3,0.1c-0.2,0.1-0.3,0.2-0.4,0.4c-0.1,0.1-0.1,0.3,0,0.3c0.3,0.1,0.6,0.3,0.9,0.2
	c0.1,0,0.2,0,0.3-0.1c0.1-0.1,0.1-0.2,0.1-0.3C117.8,80.3,117.8,80.3,117.9,80.2C117.9,80.3,117.9,80.2,117.9,80.2z"/>
<path id="XMLID_119_" class="st4" d="M148.3,81.8C148.3,81.7,148.3,81.7,148.3,81.8c-0.1-0.2-0.1-0.3-0.2-0.3c0,0-0.2,0-0.2-0.1
	c-0.1,0-0.2,0-0.3,0c-0.1,0-0.3,0.1-0.3,0.1c-0.2,0.1-0.3,0.2-0.4,0.4c-0.1,0.1-0.1,0.3,0,0.3c0.3,0.1,0.6,0.3,0.9,0.2
	c0.1,0,0.2,0,0.3-0.1c0.1-0.1,0.1-0.2,0.1-0.3C148.2,81.9,148.2,81.9,148.3,81.8C148.3,81.9,148.3,81.8,148.3,81.8z"/>
<path id="XMLID_118_" class="st4" d="M188.7,85.8c0,0-4.2,4.2-5.6,3.5c0,0,7.4,4,15.4-2.8L188.7,85.8z"/>
<g id="XMLID_115_">
	<path class="st0" d="M188.2,82.1c-1.5,0.8-3,1.7-4.5,2.6c-1.4,0.9-2.9,1.8-4.1,3c-0.3,0.3-0.6,0.6-0.7,0.9
		c-0.2,0.3-0.3,0.6-0.1,0.7c0.2,0.5,1,0.5,1.7,0.3c1.5-0.4,3.1-1.2,4.6-2l0.1,0.1c-1.3,1.2-2.7,2.3-4.4,2.8
		c-0.5,0.1-0.9,0.2-1.5,0.1c-0.5-0.1-1.1-0.4-1.4-1c-0.1-0.1-0.1-0.3-0.1-0.5s0-0.3,0-0.5c0.1-0.3,0.2-0.5,0.3-0.7
		c0.3-0.4,0.6-0.7,1-1c1.4-1.2,2.9-2,4.4-2.8C185,83.4,186.5,82.7,188.2,82.1L188.2,82.1z"/>
</g>
<g id="XMLID_112_">
	<path class="st0" d="M164.1,74.4c-1.5,1.8-2.7,3.9-3.7,6s-1.7,4.3-1.8,6.6c-0.1,2.2,0.5,4.4,1.8,6.2c1.3,1.7,2.9,3.2,4.9,4.5
		l0.2,0.2l0.1,0.1c0.1,0.2,0.3,0.6,0.5,0.8c0.2,0.3,0.5,0.5,0.7,0.7c0.3,0.2,0.6,0.4,0.9,0.5s0.7,0.2,1.1,0.2v0.2
		c-0.4,0.1-0.8,0.3-1.3,0.3c-0.4,0-0.9-0.1-1.3-0.3c-0.4-0.2-0.8-0.4-1.2-0.7c-0.4-0.3-0.7-0.6-1-1l0.3,0.3c-2.2-1-4.4-2.6-5.7-4.8
		c-1.4-2.2-1.8-4.9-1.5-7.4s1.2-4.8,2.5-6.9c1.2-2.1,2.7-4,4.4-5.7L164.1,74.4z"/>
</g>
<g id="XMLID_109_">
	<path class="st0" d="M166.6,79.7c-0.4,1.2-0.7,2.5-0.8,3.7c-0.2,1.3-0.2,2.5,0,3.8c0.2,1.2,0.5,2.4,1.1,3.5s1.4,1.9,2.3,2.7
		l-0.2-0.1c0.9,0.3,1.8,0.6,2.7,0.8c0.4,0.1,0.9,0.2,1.3,0.2s0.9-0.1,0.8-0.1l-0.4,0.7c0-0.6,0-1.3-0.1-1.9c0-0.6-0.1-1.3-0.2-1.9
		c-0.2-1.2-0.6-2.4-1.4-2.9l-0.4-0.3v-0.3c-0.1-0.5-0.1-0.9-0.1-1.4s0-0.9,0-1.4c0.1-0.9,0.3-1.9,0.7-2.7l0.2,0.1
		c-0.1,0.9,0,1.7,0.1,2.6c0.1,0.4,0.2,0.8,0.2,1.3c0.1,0.4,0.2,0.8,0.3,1.2l-0.4-0.5c0.8,0.4,1.4,1.1,1.8,1.8
		c0.4,0.7,0.7,1.4,0.8,2.2c0.2,0.7,0.3,1.5,0.3,2.2s0,1.4-0.1,2.2l-0.1,0.5l-0.4,0.2c-0.4,0.2-0.8,0.3-1.1,0.3c-0.3,0-0.6,0-0.9-0.1
		c-0.5-0.1-1-0.2-1.5-0.3c-1-0.3-1.9-0.6-2.8-1l-0.1-0.1l-0.1-0.1c-1-0.9-1.9-2-2.5-3.3s-0.9-2.6-1-3.9s0.1-2.7,0.4-3.9
		c0.3-1.3,0.7-2.5,1.2-3.7L166.6,79.7z"/>
</g>
<path id="XMLID_108_" class="st10" d="M11.4,86.2"/>
<path id="XMLID_107_" class="st10" d="M7.3,94"/>
<g id="XMLID_104_">
	<path class="st0" d="M183.8,82.2c-0.5,0.4-1.2,0.6-1.8,0.8c-0.7,0.1-1.3,0-2-0.1s-1.3-0.4-1.9-0.8c-0.5-0.4-0.9-1-1-1.7h0.1
		c0.3,0.6,0.7,1,1.2,1.3s1.1,0.4,1.7,0.4s1.2-0.1,1.8-0.1C182.5,81.9,183.1,81.9,183.8,82.2L183.8,82.2z"/>
</g>
<g id="XMLID_13_">
	<path class="st0" d="M114,100.4c-0.2,1.7-0.6,3.4-1.1,5.1s-1,3.4-1.8,5c-0.7,1.6-1.5,3.2-2.7,4.7c-1.1,1.4-2.5,2.9-4.5,3.5
		l-0.6,0.2l-0.4-0.4c-1.1-1.1-1.9-2.2-2.6-3.4c-0.8-1.2-1.4-2.5-2-3.8s-1-2.6-1.4-4c-0.3-1.4-0.6-2.8-0.7-4.2V103v-0.1
		c0.1-0.4,0.2-0.7,0.3-1c0.1-0.3,0.3-0.6,0.6-0.9c0.2-0.3,0.5-0.5,0.9-0.7c0.3-0.2,0.7-0.2,1.1-0.3h0.1h0.1c0.7,0.3,1.5,0.5,2.2,0.6
		c0.8,0.1,1.6,0.2,2.3-0.2c-0.6,0.5-1.5,0.7-2.3,0.7s-1.6-0.1-2.5-0.3h0.2c-0.5,0.1-0.9,0.4-1.2,0.8c-0.1,0.2-0.2,0.4-0.3,0.7
		c-0.1,0.2-0.1,0.5-0.2,0.7v-0.2c0.5,2.6,1.4,5.2,2.5,7.6c0.6,1.2,1.2,2.4,1.9,3.5c0.7,1.1,1.5,2.2,2.4,3.1l-1-0.2
		c1.4-0.4,2.6-1.5,3.6-2.8c0.5-0.6,1-1.3,1.5-2s0.9-1.4,1.3-2.2C111.5,106.8,112.8,103.6,114,100.4z"/>
</g>
<path id="XMLID_102_" class="st5" d="M101.5,105.6"/>
<g id="XMLID_99_">
	<path class="st0" d="M101.5,115.1c1.3-1.1,2.6-2.3,3.8-3.6c0.6-0.7,1.2-1.3,1.7-2.1c0.5-0.7,1-1.5,1.2-2.3c-0.2,0.9-0.6,1.7-1,2.5
		s-0.9,1.5-1.5,2.2c-1.1,1.4-2.3,2.8-3.5,4.1c-0.2,0.2-0.5,0.2-0.7,0C101.2,115.7,101.2,115.4,101.5,115.1L101.5,115.1L101.5,115.1z
		"/>
</g>
<g id="XMLID_96_">
	<path class="st0" d="M98.8,108.9c0.5,0.1,1.2,0.1,1.8,0c0.6-0.1,1.3-0.4,1.8-0.7c0.6-0.3,1.1-0.7,1.6-1.2c0.3-0.2,0.5-0.5,0.7-0.7
		l0.7-0.8l-0.6,0.9c-0.2,0.3-0.4,0.5-0.7,0.8c-0.5,0.5-1,1-1.6,1.4s-1.2,0.7-1.9,1c-0.7,0.2-1.4,0.3-2.2,0.2L98.8,108.9z"/>
</g>
<g id="XMLID_10_">
	<path class="st0" d="M74.2,97c-1.1,2.1-2.4,4.1-4,5.9c-0.8,0.9-1.6,1.8-2.5,2.6c-0.9,0.8-1.8,1.6-2.8,2.3l0.2-0.1
		c-0.6,0.7-1.2,1.3-1.9,1.8c-0.4,0.3-0.7,0.6-1.2,0.8c-0.2,0.1-0.5,0.2-0.7,0.3c-0.3,0.1-0.6,0.2-1.2,0.1c-0.4-0.1-0.7-0.4-0.8-0.6
		c-0.1-0.2-0.2-0.4-0.2-0.6c-0.1-0.3-0.1-0.6-0.1-0.8c0-0.5,0-0.9,0.1-1.3c0.1-0.8,0.2-1.7,0.2-2.5v0.4c-0.3-1-0.7-2-1.2-2.9
		c-0.5-1-1-1.9-1.6-2.8s-1.2-1.7-1.9-2.5c-0.1-0.1-0.2-0.2-0.3-0.3c-0.1-0.1-0.2-0.2-0.3-0.4c-0.2-0.3-0.4-0.6-0.5-1s-0.1-1,0.2-1.3
		s0.6-0.5,0.9-0.6H55c-0.1,0-0.1,0-0.1,0l0,0H55h0.1h0.3l0.6-0.1l1.3-0.1l2.5-0.3c-0.8,0.3-1.6,0.6-2.4,0.8
		c-0.4,0.1-0.8,0.2-1.2,0.4l-0.6,0.2l-0.3,0.1h-0.2H55h-0.1c0,0,0,0-0.2,0H55c-0.2,0.1-0.4,0.3-0.4,0.4s0,0.2,0,0.3
		c0.1,0.1,0.2,0.3,0.3,0.4s0.2,0.1,0.2,0.2c0.1,0.1,0.2,0.2,0.3,0.3c0.9,0.8,1.7,1.6,2.4,2.5s1.3,1.9,1.9,2.9c0.5,1,1,2,1.4,3.2
		l0.1,0.2v0.2c-0.1,0.9-0.1,1.7-0.2,2.5c0,0.4-0.1,0.8-0.1,1.2c0,0.2,0,0.3,0,0.4c0,0,0,0.1,0,0s-0.2-0.2-0.3-0.2c-0.1,0,0,0,0.1,0
		s0.3-0.1,0.4-0.2c0.3-0.2,0.6-0.4,0.9-0.6c0.6-0.5,1.2-1,1.8-1.6l0.1-0.1h0.1c1.9-1.2,3.7-2.7,5.4-4.3C71,100.5,72.7,98.8,74.2,97z
		"/>
</g>
<g id="XMLID_90_">
	<polygon class="st0" points="55.7,96.5 59.8,96.1 56.4,98.4 	"/>
</g>
<path id="XMLID_89_" class="st4" d="M58.9,101.4"/>
<g id="XMLID_82_">
	<polygon class="st0" points="58.5,100.4 65.3,98.3 59.4,102.3 	"/>
</g>
<path id="XMLID_79_" class="st4" d="M59.8,104.9"/>
<g id="XMLID_76_">
	<polygon class="st0" points="59.5,104.1 68.3,99.8 60.5,105.8 	"/>
</g>
<g id="XMLID_73_">
	<path class="st0" d="M41.9,90.9c1.6-0.7,3.2-1.4,4.9-2c1.6-0.6,3.3-1.1,5-1.5s3.4-0.8,5.1-1c1.7-0.2,3.5-0.2,5.2,0.1
		c-1.7-0.1-3.4,0.1-5.1,0.4c-1.7,0.3-3.3,0.9-4.9,1.4c-1.6,0.6-3.2,1.3-4.7,2s-3.1,1.5-4.5,2.3L41.9,90.9z"/>
</g>
<g id="XMLID_69_">
	<path class="st0" d="M64.1,90.6l9.4,1.6c3.1,0.6,6.3,1.1,9.4,1.6c6.3,1,12.6,2.1,18.9,2.9c6.3,0.9,12.6,1.7,18.9,2.2
		c3.2,0.3,6.3,0.4,9.5,0.4s6.4-0.1,9.4-1c-3,1.1-6.2,1.4-9.4,1.5c-3.2,0.1-6.4,0-9.6-0.1c-6.4-0.3-12.7-1.1-19-2s-12.6-1.9-18.9-3.1
		C76.6,93.4,70.3,92.1,64.1,90.6z"/>
</g>
<g id="XMLID_6_">
	<path class="st0" d="M141.7,103.1c1.1-0.7,2.1-1.3,3.3-1.8c1.1-0.5,2.3-1,3.4-1.3c1.2-0.3,2.4-0.6,3.6-0.7s2.5,0,3.6,0.3
		c-2.4-0.4-4.8,0.2-7,1.1c-1.1,0.5-2.1,1-3.2,1.6c-1,0.6-2,1.3-2.9,2l0,0c-0.3,0.3-0.8,0.2-1.1-0.1S141.3,103.4,141.7,103.1
		C141.6,103.1,141.7,103.1,141.7,103.1z"/>
</g>
<g id="XMLID_3_">
	<path class="st0" d="M139.3,107.9c1.8-0.9,3.6-1.7,5.5-2.5c0.9-0.4,1.8-0.8,2.8-1.1c0.5-0.2,0.9-0.3,1.4-0.5c0.5-0.1,1-0.3,1.5-0.2
		c-0.5,0-1,0.2-1.4,0.4c-0.5,0.2-0.9,0.4-1.3,0.6c-0.9,0.4-1.7,0.9-2.6,1.4c-1.7,1-3.4,2-5.1,3.1l0,0c-0.3,0.2-0.8,0.1-1-0.2
		C138.8,108.6,138.9,108.2,139.3,107.9L139.3,107.9z"/>
</g>
<path id="XMLID_2_" class="st4" d="M39.3,89c0-0.1-0.1-0.1-0.1-0.2c0-0.3-0.2-0.5-0.4-0.6c0,0-0.4-0.1-0.5-0.1
	c-0.2-0.1-0.5-0.1-0.7,0c-0.1,0-0.7,0.2-0.8,0.3c-0.4,0.2-0.6,0.5-0.8,1c-0.2,0.2-0.2,0.6,0.1,0.8c0.6,0.3,1.3,0.7,2,0.5
	c0.2,0,0.5-0.1,0.6-0.3c0.2-0.2,0.3-0.4,0.3-0.7c0.1-0.2,0.1-0.2,0.1-0.4C39.2,89.4,39.4,89.1,39.3,89z"/>
<g id="XMLID_303_">
	<path class="st0" d="M177.2,72.1c0,0.7-0.1,1.2-0.4,1.7c-0.2,0.5-0.7,0.7-1,1c-0.3,0.4-0.6,0.7-0.9,1.1s-0.4,0.8-0.5,1.4h-0.2
		c-0.3-0.5-0.3-1.1-0.2-1.7c0.1-0.6,0.2-1.1,0.5-1.7c0.2-0.5,0.3-1.1,0.8-1.5c0.5-0.3,1-0.6,1.8-0.6L177.2,72.1z"/>
</g>
<path id="XMLID_113_" class="st4" d="M170.9,74.5c0,0,0-0.1-0.1-0.1c0-0.2-0.1-0.3-0.3-0.4c0,0-0.2-0.1-0.3-0.1c-0.1,0-0.3,0-0.4,0
	s-0.4,0.1-0.5,0.2c-0.3,0.1-0.4,0.3-0.5,0.6c-0.1,0.2-0.1,0.4,0,0.5c0.4,0.2,0.8,0.4,1.2,0.3c0.1,0,0.3-0.1,0.4-0.2s0.2-0.2,0.2-0.4
	c0.1-0.1,0.1-0.1,0.1-0.2C170.8,74.7,170.9,74.5,170.9,74.5z"/>
<g id="XMLID_160_">
	<path class="st0" d="M54.2,73.4c-1.9,1-3.9,1.7-6,2.3c-2.1,0.6-4.2,0.9-6.3,1.2c-2.1,0.3-4.3,0.5-6.4,0.6c-2.1,0-4.3-0.1-6.4-0.7
		v-0.1c2.1,0.4,4.2,0.3,6.3,0.1c2.1-0.2,4.2-0.5,6.2-1c2.1-0.4,4.1-1,6.2-1.4C49.9,74,52,73.6,54.2,73.4L54.2,73.4z"/>
</g>
<path id="XMLID_4_" class="st4" d="M47.5,80.2c0,0,0-0.1-0.1-0.1c0-0.2-0.1-0.3-0.3-0.4c0,0-0.2-0.1-0.3-0.1s-0.3,0-0.4,0
	c-0.1,0-0.4,0.1-0.5,0.2c-0.3,0.1-0.4,0.3-0.5,0.6c-0.1,0.2-0.1,0.4,0,0.5c0.4,0.2,0.8,0.4,1.2,0.3c0.1,0,0.3-0.1,0.4-0.2
	c0.1-0.1,0.2-0.2,0.2-0.4c0.1-0.1,0.1-0.1,0.1-0.2C47.4,80.4,47.5,80.2,47.5,80.2z"/>
</svg>
